<svg xmlns="http://www.w3.org/2000/svg" xmlns:xlink="http://www.w3.org/1999/xlink" width="11" height="11"
    preserveAspectRatio="xMidYMid meet" viewBox="0 0 11 11"
    style="-ms-transform: rotate(360deg); -webkit-transform: rotate(360deg); transform: rotate(360deg);">
    <path
        d="M9.5 3H9V1.5a.5.5 0 0 0-1 0V3a1 1 0 0 0 1 1v4.25a.25.25 0 1 1-.5 0V6.5A1.5 1.5 0 0 0 7 5V2a1 1 0 0 0-1-1H2a1 1 0 0 0-1 1v7a1 1 0 0 0 1 1h4a1 1 0 0 0 1-1V6a.5.5 0 0 1 .5.5v1.75a1.25 1.25 0 1 0 2.5 0V3.5a.5.5 0 0 0-.5-.5zM6 4.5a.49.49 0 0 1-.48.5h-3A.51.51 0 0 1 2 4.5V3a.5.5 0 0 1 .5-.5h3A.5.5 0 0 1 6 3v1.5z"
        fill="#626262" />
    <rect x="0" y="0" width="11" height="11" fill="rgba(0, 0, 0, 0)" /></svg>