<svg width="629" height="336" viewBox="0 0 629 336" fill="none" xmlns="http://www.w3.org/2000/svg">
<path opacity="0.1" d="M580.773 264.901C580.073 266.412 579.374 267.904 578.677 269.375C577.59 271.66 576.517 273.9 575.458 276.097C574.987 277.07 574.516 278.025 574.057 278.98C568.862 289.601 564.011 298.995 559.892 306.721C556.154 313.721 550.603 319.586 543.822 323.702C537.041 327.818 529.278 330.033 521.348 330.115L429.745 331.113H428.779L420.926 331.198L414.209 331.27L393.611 331.494H392.778L382.292 331.609H381.971L317.339 332.31L259.647 332.914L252.936 332.987L211.257 333.44H211.209L184.178 333.73H183.888L98.4165 334.655L72.8475 334.933C67.391 334.995 61.9575 334.216 56.7377 332.624C47.6542 329.878 39.4907 324.706 33.1257 317.663C22.1442 305.554 14.1407 291.427 8.76473 276.097C7.98753 273.884 7.26268 271.643 6.59018 269.375C-12.0203 206.415 10.6675 125.187 51.5006 70.83C53.2121 68.5571 54.9517 66.3406 56.7196 64.1805L56.7618 64.1321C69.3198 48.7051 83.4 35.817 98.3984 26.6526C124.976 10.3853 154.423 5.80317 183.387 19.459C207.893 31.0172 230.774 36.4517 252.954 37.9267C255.195 38.0718 257.436 38.1806 259.665 38.2471C310.544 39.849 358.227 21.5022 414.221 9.65992C416.45 9.18841 418.685 8.72294 420.938 8.28165C460.883 0.326326 505.196 -3.86895 557.892 4.95081C563.367 5.84588 568.769 7.13892 574.057 8.81966C576.38 9.56925 578.619 10.3753 580.773 11.2377C605.926 21.478 619.643 40.3991 625.473 64.1079C626.024 66.3083 626.501 68.547 626.904 70.824C637.239 127.853 606.971 208.748 580.773 264.901Z" fill="#45AA29"/>
<g opacity="0.1">
<path opacity="0.1" d="M98.3983 26.6528V334.722L72.8293 335C67.3728 335.062 61.9393 334.283 56.7195 332.691V64.1323H56.7618C69.3198 48.6871 83.4 35.799 98.3983 26.6528Z" fill="#45AA29"/>
<path opacity="0.1" d="M626.934 70.8303H51.5005C53.2119 68.5573 54.9516 66.3408 56.7194 64.1807V64.1323H625.503C626.054 66.3206 626.531 68.5533 626.934 70.8303Z" fill="#45AA29"/>
<path opacity="0.1" d="M580.773 11.244V269.369H578.677C577.59 271.654 576.517 273.895 575.458 276.091C574.987 277.064 574.515 278.019 574.056 278.974V8.80176C576.38 9.55135 578.619 10.3654 580.773 11.244Z" fill="#45AA29"/>
<path opacity="0.1" d="M420.938 8.26367V331.222L414.221 331.294V9.64195C416.45 9.17043 418.685 8.70496 420.938 8.26367Z" fill="#45AA29"/>
<path opacity="0.1" d="M259.665 38.2291V332.975L252.954 333.047V37.9087C255.195 38.0538 257.436 38.1384 259.665 38.2291Z" fill="#45AA29"/>
<path opacity="0.1" d="M578.677 269.375C577.59 271.66 576.517 273.9 575.458 276.097H8.76463C7.98744 273.884 7.26259 271.644 6.59009 269.375H578.677Z" fill="#45AA29"/>
</g>
<path d="M139.292 160.696H127.815V195.552H139.292V160.696Z" fill="#3F3D56"/>
<path d="M448.156 158.883H436.679V195.758H448.156V158.883Z" fill="#3F3D56"/>
<path d="M521.348 322.596V330.454L429.582 331.301L428.603 331.319L393.726 331.639L392.892 331.651L382.291 331.742H381.977L317.357 332.34L211.281 333.326H211.191L184.22 333.58L183.93 333.586L64.0886 334.686V325.618L92.2671 308.692L148.805 308.22L150.013 308.214L150.412 308.208L151.62 308.19L178.766 307.967L179.98 307.961L180.367 307.954L181.575 307.948L190.279 307.876L190.508 307.87L211.982 307.688H212.157L379.718 306.274L383.82 306.244H384.23L387.359 306.213L410.101 306.026L411.31 306.008L412.427 305.996H413.007L420.08 305.941L421.482 305.923L423.36 305.911L429.25 305.857L438.594 305.778L439.802 305.766L441.904 305.754H442.297L487.425 305.367L521.348 322.596Z" fill="#65617D"/>
<path opacity="0.2" d="M521.348 322.596V330.454L429.582 331.301L428.603 331.319L393.726 331.639L392.892 331.651L382.291 331.742H381.977L317.357 332.34L211.281 333.326H211.191L184.22 333.58L183.93 333.586L64.0886 334.686V325.618L92.2671 308.692L148.805 308.22L150.013 308.214L150.412 308.208L151.62 308.19L178.766 307.967L179.98 307.961L180.367 307.954L181.575 307.948L190.279 307.876L190.508 307.87L211.982 307.688H212.157L379.718 306.274L383.82 306.244H384.23L387.359 306.213L410.101 306.026L411.31 306.008L412.427 305.996H413.007L420.08 305.941L421.482 305.923L423.36 305.911L429.25 305.857L438.594 305.778L439.802 305.766L441.904 305.754H442.297L487.425 305.367L521.348 322.596Z" fill="black"/>
<path d="M178.857 292.376V307.181C178.857 307.882 178.658 308.569 178.284 309.162C177.91 309.754 177.375 310.229 176.742 310.53C176.271 310.758 175.756 310.882 175.232 310.892L154.151 311.34C153.588 311.353 153.03 311.235 152.52 310.995C151.876 310.7 151.331 310.225 150.948 309.628C150.566 309.031 150.363 308.337 150.364 307.628V292.376H178.857Z" fill="#3F3D56"/>
<path opacity="0.1" d="M178.857 292.376V307.181C178.857 307.882 178.658 308.569 178.284 309.162C177.91 309.754 177.375 310.229 176.742 310.53C176.271 310.758 175.756 310.882 175.232 310.892L154.151 311.34C153.588 311.353 153.03 311.235 152.52 310.995C151.876 310.7 151.331 310.225 150.948 309.628C150.566 309.031 150.363 308.337 150.364 307.628V292.376H178.857Z" fill="black"/>
<path d="M180.065 292.376V307.181C180.065 307.882 179.866 308.569 179.492 309.162C179.118 309.754 178.583 310.229 177.951 310.53C177.479 310.758 176.964 310.882 176.44 310.892L155.359 311.34C154.796 311.353 154.238 311.235 153.728 310.995C153.084 310.7 152.539 310.225 152.156 309.628C151.774 309.031 151.571 308.337 151.572 307.628V292.376H180.065Z" fill="#3F3D56"/>
<path d="M439.802 292.376H411.31V311.418H439.802V292.376Z" fill="#3F3D56"/>
<path opacity="0.1" d="M439.802 292.376H411.31V311.418H439.802V292.376Z" fill="black"/>
<path d="M438.594 292.376H410.102V311.418H438.594V292.376Z" fill="#3F3D56"/>
<path opacity="0.1" d="M139.292 160.69V164.154L127.815 163.858V160.69H139.292Z" fill="black"/>
<path d="M214.833 63.1107L201.043 162.25C200.956 162.883 200.638 163.462 200.151 163.876C199.664 164.289 199.042 164.509 198.403 164.493L87.9846 161.627L85.8886 161.573C85.5237 161.564 85.1646 161.479 84.835 161.322C84.5053 161.165 84.2123 160.94 83.9752 160.663C83.7381 160.385 83.5622 160.06 83.4589 159.71C83.3556 159.359 83.3273 158.991 83.3758 158.629L98.8574 54.8471C98.9572 54.2042 99.2942 53.6222 99.8019 53.2159C100.31 52.8096 100.951 52.6087 101.6 52.6527L212.417 60.1607C212.775 60.1814 213.124 60.2761 213.443 60.4387C213.762 60.6014 214.044 60.8285 214.271 61.1057C214.498 61.3829 214.665 61.7041 214.762 62.0492C214.859 62.3943 214.883 62.7557 214.833 63.1107Z" fill="#65617D"/>
<path d="M106.269 59.9431L94.5928 151.423L196.072 154.645L208.551 66.3872L106.269 59.9431Z" fill="#45AA29"/>
<path d="M352.724 58.5283H235.534C233.756 58.5283 232.314 59.9709 232.314 61.7503V160.086C232.314 161.865 233.756 163.308 235.534 163.308H352.724C354.502 163.308 355.943 161.865 355.943 160.086V61.7503C355.943 59.9709 354.502 58.5283 352.724 58.5283Z" fill="#65617D"/>
<path d="M350.501 65.583H238.149V152.832H350.501V65.583Z" fill="#45AA29"/>
<path opacity="0.1" d="M448.156 158.877V161.168L436.679 161.404V158.877H448.156Z" fill="black"/>
<path d="M499.941 156.942C499.957 157.193 499.923 157.444 499.839 157.681C499.756 157.918 499.626 158.135 499.457 158.32C499.288 158.506 499.083 158.655 498.854 158.758C498.626 158.862 498.379 158.919 498.128 158.925L385.052 161.264C384.582 161.274 384.126 161.106 383.776 160.793C383.425 160.48 383.205 160.046 383.161 159.578L373.442 58.4559C373.418 58.205 373.445 57.9519 373.522 57.7118C373.599 57.4717 373.723 57.2497 373.888 57.0592C374.053 56.8688 374.255 56.7138 374.481 56.6037C374.708 56.4936 374.955 56.4306 375.206 56.4187L487.425 50.833L488.633 50.7726C489.113 50.7473 489.584 50.9096 489.947 51.2254C490.31 51.5412 490.536 51.9858 490.578 52.4652L499.941 156.942Z" fill="#65617D"/>
<path d="M379.899 62.3609L482.387 57.3193L491.043 149.204L389.365 151.623L379.899 62.3609Z" fill="#45AA29"/>
<path opacity="0.1" d="M499.941 156.942C499.957 157.193 499.922 157.444 499.839 157.681C499.756 157.918 499.626 158.135 499.457 158.32C499.288 158.506 499.083 158.655 498.854 158.759C498.626 158.862 498.379 158.919 498.128 158.925L487.425 50.833L488.633 50.7726C489.113 50.7473 489.584 50.9096 489.947 51.2254C490.31 51.5412 490.536 51.9858 490.578 52.4652L499.941 156.942Z" fill="black"/>
<path opacity="0.1" d="M101.618 52.6466L87.9846 161.627L85.8886 161.573C85.5237 161.564 85.1647 161.479 84.835 161.322C84.5053 161.165 84.2123 160.94 83.9752 160.662C83.7381 160.385 83.5622 160.06 83.4589 159.71C83.3556 159.359 83.3273 158.991 83.3758 158.629L98.8574 54.847C98.956 54.1997 99.2951 53.6135 99.8069 53.2056C100.319 52.7976 100.965 52.598 101.618 52.6466Z" fill="black"/>
<path opacity="0.1" d="M139.292 185.227H127.815V195.552H139.292V185.227Z" fill="black"/>
<path opacity="0.1" d="M180.065 292.37V295.375L151.572 296.136V292.37H180.065Z" fill="black"/>
<path d="M230.351 188.824V290.502C230.344 291.123 230.098 291.717 229.665 292.161C229.232 292.606 228.645 292.867 228.025 292.89L112.261 295.973H112.231C111.6 295.965 110.998 295.711 110.552 295.265C110.106 294.819 109.853 294.216 109.845 293.585V188.824C109.853 188.193 110.106 187.59 110.552 187.144C110.998 186.698 111.6 186.444 112.231 186.436H227.965C228.595 186.444 229.198 186.698 229.643 187.144C230.089 187.59 230.343 188.193 230.351 188.824Z" fill="#65617D"/>
<path opacity="0.1" d="M112.261 186.436V295.973H112.231C111.6 295.965 110.998 295.711 110.552 295.265C110.106 294.819 109.853 294.216 109.845 293.585V188.824C109.853 188.193 110.106 187.59 110.552 187.144C110.998 186.698 111.6 186.444 112.231 186.436H112.261Z" fill="black"/>
<path d="M117.546 192.929H224.764V282.547L117.546 284.965V192.929Z" fill="#D4DFEC"/>
<path opacity="0.1" d="M448.156 185.227H436.679V195.758H448.156V185.227Z" fill="black"/>
<path opacity="0.1" d="M438.594 292.37V296.245L410.102 295.483V292.37H438.594Z" fill="black"/>
<path d="M476.196 188.824V293.585C476.188 294.221 475.93 294.829 475.477 295.276C475.025 295.723 474.415 295.973 473.779 295.973L357.991 292.89C357.371 292.867 356.784 292.606 356.351 292.161C355.918 291.717 355.673 291.123 355.665 290.502V188.824C355.673 188.193 355.927 187.59 356.373 187.144C356.819 186.698 357.421 186.444 358.051 186.436H473.786C474.42 186.438 475.029 186.689 475.48 187.136C475.93 187.583 476.188 188.189 476.196 188.824Z" fill="#65617D"/>
<path opacity="0.1" d="M476.196 188.824V293.585C476.188 294.221 475.93 294.829 475.477 295.276C475.025 295.723 474.415 295.973 473.78 295.973V186.436C474.415 186.436 475.025 186.687 475.477 187.134C475.93 187.581 476.188 188.188 476.196 188.824Z" fill="black"/>
<path d="M468.494 192.929H361.277V282.547L468.494 284.965V192.929Z" fill="#D4DFEC"/>
<path d="M352.669 188.824V290.502C352.662 291.123 352.416 291.717 351.984 292.161C351.551 292.606 350.964 292.867 350.344 292.89L234.579 295.973C233.944 295.973 233.334 295.723 232.881 295.276C232.429 294.829 232.171 294.221 232.163 293.585V188.824C232.171 188.193 232.425 187.59 232.871 187.144C233.316 186.698 233.919 186.444 234.549 186.436H350.283C350.914 186.444 351.516 186.698 351.962 187.144C352.408 187.59 352.661 188.193 352.669 188.824Z" fill="#65617D"/>
<path d="M239.865 192.929H347.082V282.547L239.865 284.965V192.929Z" fill="#D4DFEC"/>
<path opacity="0.1" d="M521.348 322.596V330.454L429.582 331.301L428.603 331.319L393.726 331.639L392.892 331.651L382.291 331.742H381.977L317.357 332.34L211.281 333.326H211.191L184.22 333.58L183.93 333.586L64.0886 334.686V325.618L186.413 324.814H186.703L211.463 324.645H211.577L382.569 323.515H382.744L382.847 323.508H383.131L386.024 323.49H386.906L431.901 323.188L434.559 323.176L435.151 323.17L521.348 322.596Z" fill="black"/>
<path d="M294.325 195.552C311.449 195.552 325.33 181.66 325.33 164.523C325.33 147.386 311.449 133.493 294.325 133.493C277.201 133.493 263.32 147.386 263.32 164.523C263.32 181.66 277.201 195.552 294.325 195.552Z" fill="#FBBEBE"/>
<path d="M325.337 227.996C325.337 227.996 265.235 235.25 270.973 227.996C273.051 225.372 273.625 217.598 273.51 208.742C273.474 206.052 273.377 203.266 273.238 200.491C272.574 187.192 270.973 174.195 270.973 174.195C270.973 174.195 323.524 149.41 317.484 169.057C315.068 176.994 315.859 188.141 317.695 198.605C318.233 201.658 318.855 204.65 319.508 207.491C321.1 214.421 323.045 221.265 325.337 227.996Z" fill="#FBBEBE"/>
<path opacity="0.1" d="M325.337 227.996C325.337 227.996 265.235 235.25 270.973 227.996C273.051 225.373 273.625 217.599 273.51 208.743C282.673 204.825 294.331 207.745 294.331 207.745C306.605 205.297 314.476 205.774 319.508 207.491C321.1 214.421 323.045 221.265 325.337 227.996Z" fill="black"/>
<path d="M211.257 334.009V333.501L317.339 332.346L381.971 331.742H382.153L382.086 332.636L382.177 331.742H382.292V331.639L383.119 323.508L383.433 320.431L383.53 319.47L383.614 318.666L387.347 306.207L391.08 293.767L394.221 283.29L399.017 267.283C399.017 267.283 396.299 260.936 394.789 259.122C393.279 257.309 391.769 244.916 391.769 244.916C391.769 244.916 378.879 232.627 373.243 231.212C370.881 230.608 366.218 229.804 361.265 228.794C359.41 228.419 357.508 228.02 355.678 227.585C354.645 227.349 353.63 227.101 352.657 226.854C350.765 226.38 348.899 225.803 347.07 225.125C346.111 224.776 345.198 224.311 344.352 223.74C339.912 220.482 328.786 220.113 328.357 220.113C328.356 220.099 328.356 220.085 328.357 220.071V220.017C328.372 219.763 328.372 219.509 328.357 219.255C328.357 219.013 328.357 218.729 328.302 218.409C328.302 218.312 328.302 218.209 328.26 218.106C328.23 217.889 328.194 217.659 328.139 217.417C328.121 217.309 328.097 217.202 328.067 217.097C327.892 216.368 327.639 215.661 327.312 214.987C327.27 214.89 327.215 214.788 327.167 214.691C326.871 214.133 326.527 213.601 326.14 213.101C326.061 212.998 325.977 212.889 325.886 212.787C325.391 212.203 324.841 211.668 324.243 211.191C324.08 211.064 323.911 210.931 323.736 210.81C323.638 210.731 323.535 210.658 323.428 210.592L322.89 210.242L322.389 209.952C321.948 209.71 321.483 209.474 320.975 209.25C320.818 209.178 320.649 209.111 320.48 209.045C320.311 208.978 320.045 208.876 319.822 208.791H319.785L319.332 208.61C318.988 208.495 318.638 208.392 318.269 208.289L317.708 208.144L317.103 208.005L316.499 207.878C315.895 207.757 315.249 207.648 314.573 207.564L313.884 207.479L313.177 207.407L312.446 207.346L311.407 207.286L310.199 207.243C304.871 207.243 299.558 207.808 294.349 208.93C290.731 208.124 287.024 207.783 283.319 207.914H282.794L282.19 207.951H281.803L281.024 208.023C280.764 208.023 280.499 208.078 280.239 208.114C279.979 208.15 279.707 208.18 279.448 208.223L279.049 208.289C278.656 208.356 278.258 208.428 277.841 208.513C277.708 208.537 277.575 208.567 277.442 208.604C276.917 208.718 276.391 208.857 275.872 209.015C275.612 209.087 275.352 209.172 275.092 209.262C274.96 209.299 274.833 209.347 274.706 209.395L274.319 209.535L273.939 209.686L273.486 209.867C273.256 209.964 273.033 210.066 272.809 210.175C272.682 210.23 272.555 210.29 272.435 210.357C272.314 210.423 272.187 210.478 272.072 210.544C270.706 211.25 269.444 212.141 268.321 213.192L268.013 213.488L267.711 213.796C267.608 213.899 267.512 214.008 267.415 214.117C267.021 214.547 266.654 215.002 266.316 215.477C266.219 215.604 266.128 215.731 266.038 215.864C265.655 216.429 265.307 217.019 264.999 217.629C264.92 217.774 264.848 217.925 264.775 218.07C264.282 219.091 263.878 220.153 263.567 221.244C263.455 221.647 263.352 222.05 263.259 222.453C263.259 222.453 250.472 228.099 239.865 232.185C237.044 233.274 234.386 234.259 232.163 235.002C231.517 235.22 230.913 235.419 230.351 235.607C229.132 236.048 227.865 236.34 226.576 236.477C225.968 236.487 225.363 236.544 224.764 236.647C219.889 237.439 211.535 240.878 210.623 244.33C210.549 244.606 210.529 244.893 210.563 245.176C210.563 245.176 210.563 245.219 210.563 245.243C211.167 249.474 206.938 248.87 206.938 248.87C206.938 248.87 205.428 260.053 203.314 263.076C201.786 265.252 200.741 270.106 200.608 273.769C200.532 274.911 200.622 276.057 200.874 277.173C200.874 277.203 200.874 277.233 200.874 277.257C201.116 278.068 200.536 280.28 199.551 283.115C198.482 286.228 196.923 290.097 195.425 293.748C193.166 299.262 191.04 304.267 190.907 305.367C190.853 305.857 190.696 306.733 190.478 307.864C189.596 312.47 187.639 321.241 186.673 324.79C185.954 327.438 184.909 331.065 184.19 333.555C184.19 333.628 184.148 333.7 184.13 333.767L211.209 333.501V334.009H211.294H211.257Z" fill="#45AA29"/>
<path opacity="0.1" d="M221.139 262.755C221.139 262.755 255.57 280.588 267.953 278.473L221.139 262.755Z" fill="black"/>
<path opacity="0.1" d="M291.208 255.501C291.208 255.501 324.733 266.382 335.907 267.894C347.082 269.405 291.208 255.501 291.208 255.501Z" fill="black"/>
<path opacity="0.1" d="M328.393 220.488C310.876 223.716 277.895 223.021 263.64 222.531C268.865 203.792 294.343 210.163 294.343 210.163C325.88 203.864 328.296 216.934 328.393 220.488Z" fill="black"/>
<path d="M328.393 219.279C310.876 222.507 277.895 221.812 263.64 221.322C268.865 202.583 294.343 208.954 294.343 208.954C325.88 202.655 328.296 215.725 328.393 219.279Z" fill="#45AA29"/>
<path d="M421.379 301.897C421.379 301.897 442.013 298.724 442.418 307.791C442.822 316.859 431.895 323.194 431.895 323.194L421.379 301.897Z" fill="#FBBEBE"/>
<path opacity="0.1" d="M317.695 198.605C316.808 199.002 315.901 199.353 314.977 199.657C308.466 201.905 301.9 204.172 295.044 204.995C288.188 205.817 280.994 205.091 275.014 201.67C274.386 201.315 273.781 200.921 273.202 200.491C272.537 187.192 270.937 174.195 270.937 174.195C270.937 174.195 323.488 149.41 317.448 169.057C315.044 176.994 315.859 188.141 317.695 198.605Z" fill="black"/>
<path d="M285.82 116.023C284.958 116.251 284.055 116.274 283.182 116.09C282.309 115.907 281.492 115.521 280.794 114.965L282.051 116.712C281.31 116.798 280.56 116.72 279.853 116.485C279.145 116.251 278.498 115.864 277.955 115.352C277.841 116.916 277.906 118.488 278.149 120.037C276.07 120.137 274.023 119.495 272.374 118.224C272.342 118.769 272.477 119.311 272.763 119.777C273.048 120.243 273.469 120.61 273.969 120.829C271.88 120.579 269.773 121.099 268.039 122.29C266.305 123.481 265.063 125.263 264.546 127.303L267.699 127.593C265.221 128.123 262.997 129.481 261.393 131.444C260.426 132.653 259.689 134.201 260.112 135.676C260.535 137.151 262.577 138.094 263.688 137.042C262.107 138.93 260.958 141.142 260.321 143.522C259.685 145.902 259.576 148.392 260.003 150.819C260.29 151.852 260.384 152.93 260.281 153.998C260.082 154.996 259.454 155.86 259.14 156.833C258.535 158.599 259.109 160.515 259.647 162.274L262.48 171.596C263.507 174.963 264.528 178.336 265.869 181.594C266.818 183.654 267.625 185.777 268.285 187.947C269.046 190.873 269.076 194.077 270.701 196.634C271.814 198.243 273.303 199.557 275.038 200.461C281.012 203.882 288.23 204.608 295.068 203.786C301.906 202.963 308.466 200.697 314.971 198.448C316.416 198.012 317.804 197.403 319.103 196.634C323.603 193.684 324.605 187.651 325.445 182.338C326.381 176.413 327.632 170.501 329.849 164.928C331.165 161.609 332.869 158.242 332.579 154.687C332.21 149.966 328.477 146.14 327.553 141.497C327.244 139.945 327.258 138.346 327.595 136.8C327.882 135.879 328.043 134.923 328.073 133.959C327.97 132.012 326.375 130.513 324.877 129.262C321.628 126.546 318.273 123.978 314.814 121.56C314.639 120.351 316.282 119.832 317.025 118.876C318.076 117.528 316.989 115.388 315.394 114.76C313.799 114.131 312.011 114.542 310.35 114.959C310.458 114.108 310.289 113.245 309.868 112.498C309.447 111.751 308.796 111.16 308.012 110.813C307.228 110.466 306.353 110.381 305.518 110.572C304.682 110.762 303.93 111.218 303.373 111.87C302.932 110.858 302.228 109.983 301.333 109.336C300.438 108.69 299.386 108.295 298.287 108.195C294.283 107.88 294.204 110.945 291.643 112.632C289.082 114.318 286.968 112.094 284.999 110.474C284.637 111.39 284.522 112.385 284.666 113.359C284.811 114.333 285.208 115.252 285.82 116.023Z" fill="#3F3D56"/>
<path d="M436.679 320.033C436.679 320.033 436.142 321.314 435.151 323.17C433.653 326.025 431.828 328.697 429.715 331.131L429.552 331.307H428.573L393.696 331.627H392.862L392.759 331.506L385.994 323.472L383.445 320.444L383.342 320.317L383.125 320.063L383.004 319.918L382.847 319.73L377.888 313.842L379.7 306.286L382.787 293.555L382.865 293.247L383.469 290.829L383.898 289.015L385.336 283.103L390.265 262.761L399.023 267.295L408.259 283.617L413.218 292.382H415.936C416.45 292.382 417.628 293.374 418.812 294.516C419.235 294.921 419.657 295.35 420.02 295.725C421.095 296.838 421.947 297.793 421.947 297.793C421.947 297.793 426.35 297.889 427.534 301.359C427.595 301.527 427.646 301.699 427.685 301.873C428.078 303.237 428.589 304.564 429.213 305.839C429.992 307.537 430.971 309.466 431.962 311.394C433.804 314.931 435.677 318.298 436.365 319.519L436.45 319.67L436.679 320.033Z" fill="#45AA29"/>
<path opacity="0.1" d="M384.792 292.739L384.732 293.603V293.664L384.629 295.054L383.826 306.244L382.853 319.724L382.576 323.52L381.971 331.645V331.748L317.339 332.352L211.275 333.501V334.009H211.191V333.501V333.332L211.463 324.651L211.982 307.688L212.429 293.307L212.471 291.874C212.498 291.01 212.7 290.159 213.066 289.376C213.432 288.592 213.953 287.891 214.599 287.315C215.245 286.74 216.001 286.302 216.821 286.029C217.641 285.756 218.508 285.653 219.37 285.727C222.221 285.968 225.923 286.265 230.351 286.579L232.163 286.712C257.732 288.489 304.986 290.786 352.669 287.921C353.672 287.867 354.681 287.806 355.69 287.734C363.083 287.268 370.471 286.67 377.785 285.92C378.71 285.823 379.645 285.93 380.524 286.234C381.403 286.537 382.204 287.03 382.872 287.677C383.54 288.325 384.059 289.111 384.39 289.98C384.722 290.849 384.859 291.781 384.792 292.709V292.739Z" fill="black"/>
<path d="M211.257 334.009V333.501L317.339 332.346L381.971 331.742H382.153V331.639L382.757 323.514L383.016 319.887L384.007 306.219L384.786 295.399V295.133C384.822 294.634 384.8 294.133 384.72 293.64C384.723 293.62 384.723 293.599 384.72 293.579C384.554 292.559 384.139 291.595 383.512 290.774C382.847 289.921 381.975 289.251 380.98 288.828C379.984 288.405 378.897 288.242 377.822 288.356C370.507 289.106 363.119 289.704 355.726 290.17C354.717 290.242 353.708 290.303 352.706 290.357C305.023 293.192 257.768 290.895 232.199 289.148L230.387 289.015C225.96 288.701 222.257 288.411 219.406 288.163C217.837 288.03 216.276 288.484 215.022 289.436C213.768 290.388 212.911 291.772 212.616 293.319C212.555 293.646 212.519 293.978 212.508 294.311L212.097 307.706L211.535 324.675L211.269 333.356V333.525V334.033L211.257 334.009Z" fill="#3F3D56"/>
<path opacity="0.1" d="M384.973 296.977L384.23 306.244L383.125 320.057L382.847 323.514L382.243 331.258L382.207 331.645V331.748L382.116 332.643L382.183 331.748H382.008L317.375 332.352L211.275 333.501V333.332L211.571 324.651L212.175 307.688L212.562 296.414C212.581 295.773 212.76 295.147 213.083 294.592C213.406 294.038 213.862 293.573 214.41 293.241C215.094 292.821 215.894 292.631 216.694 292.697C217.962 292.799 219.521 292.92 221.339 293.053C224.292 293.271 227.935 293.525 232.175 293.791C240.028 294.286 249.88 294.818 261.169 295.254C292.579 296.463 334.983 296.868 375.26 293.337C377.073 293.18 378.945 293.005 380.775 292.83C381.5 292.757 382.23 292.896 382.877 293.229C383.061 293.32 383.235 293.429 383.397 293.555C383.923 293.936 384.339 294.449 384.605 295.042C384.667 295.16 384.717 295.284 384.756 295.411C384.937 295.912 385.012 296.445 384.973 296.977Z" fill="black"/>
<path opacity="0.1" d="M180.065 305.252V307.181C180.065 307.882 179.866 308.569 179.492 309.161C179.118 309.754 178.583 310.229 177.951 310.53L153.728 310.995C153.084 310.7 152.539 310.225 152.156 309.628C151.774 309.031 151.571 308.337 151.572 307.628V305.814L180.065 305.252Z" fill="black"/>
<path d="M180.367 311.666L148.805 312.271V307.03L180.367 306.425V311.666Z" fill="#3F3D56"/>
<path opacity="0.1" d="M180.367 311.666L148.805 312.271V307.03L180.367 306.425V311.666Z" fill="black"/>
<path d="M181.575 311.666L150.014 312.271V307.03L181.575 306.425V311.666Z" fill="#3F3D56"/>
<g opacity="0.1">
<path opacity="0.1" d="M286.068 114.04C285.478 113.273 285.086 112.372 284.926 111.417C284.781 112.35 284.868 113.306 285.18 114.197C285.48 114.17 285.777 114.117 286.068 114.04Z" fill="black"/>
<path opacity="0.1" d="M278.397 118.054C278.283 117.313 278.208 116.567 278.173 115.818C278.173 116.561 278.173 117.311 278.173 118.06L278.397 118.054Z" fill="black"/>
<path opacity="0.1" d="M327.626 138.227C327.659 137.688 327.732 137.153 327.844 136.625C328.129 135.705 328.292 134.752 328.327 133.79C328.313 133.574 328.281 133.359 328.23 133.149C328.127 133.705 327.964 134.261 327.844 134.811C327.602 135.933 327.529 137.084 327.626 138.227Z" fill="black"/>
<path opacity="0.1" d="M315.062 119.548L315.72 120.025C316.275 119.623 316.795 119.174 317.273 118.683C317.5 118.368 317.641 118 317.681 117.614C317.721 117.227 317.66 116.837 317.502 116.483C317.442 116.621 317.365 116.751 317.273 116.87C316.53 117.825 314.887 118.351 315.062 119.548Z" fill="black"/>
<path opacity="0.1" d="M265.428 125.363C265.208 125.804 265.032 126.265 264.902 126.741C265.847 126.213 266.865 125.828 267.923 125.599L265.428 125.363Z" fill="black"/>
<path opacity="0.1" d="M273.758 118.786C273.361 118.567 272.981 118.318 272.622 118.042C272.607 118.281 272.625 118.521 272.676 118.756C273.037 118.738 273.398 118.748 273.758 118.786Z" fill="black"/>
<path opacity="0.1" d="M332.815 154.403C332.567 157.335 331.202 160.158 330.096 162.939C327.88 168.513 326.629 174.425 325.693 180.355C324.853 185.668 323.881 191.701 319.351 194.645C318.056 195.419 316.67 196.029 315.225 196.459C308.713 198.714 302.147 200.975 295.292 201.797C288.436 202.619 281.242 201.899 275.262 198.478C273.528 197.573 272.039 196.259 270.925 194.651C269.312 192.094 269.282 188.89 268.508 185.965C267.849 183.792 267.042 181.667 266.092 179.605C264.757 176.353 263.73 172.956 262.71 169.613C261.763 166.506 260.819 163.396 259.877 160.285C259.566 159.349 259.336 158.389 259.188 157.414C258.952 158.961 259.412 160.581 259.877 162.099C260.819 165.214 261.763 168.323 262.71 171.426C263.73 174.793 264.757 178.167 266.092 181.419C267.042 183.481 267.849 185.606 268.508 187.778C269.269 190.704 269.3 193.908 270.925 196.465C272.039 198.073 273.528 199.386 275.262 200.291C281.242 203.713 288.454 204.432 295.292 203.61C302.129 202.788 308.689 200.527 315.225 198.272C316.67 197.842 318.056 197.233 319.351 196.459C323.851 193.515 324.853 187.482 325.693 182.168C326.629 176.238 327.88 170.326 330.096 164.753C331.413 161.44 333.117 158.073 332.827 154.512C332.827 154.476 332.815 154.44 332.815 154.403Z" fill="black"/>
<path opacity="0.1" d="M260.517 152.064C260.517 152.064 260.517 152.021 260.517 151.997C260.626 150.931 260.532 149.854 260.239 148.824C260.119 148.16 260.04 147.49 260.003 146.817C259.934 148.095 260.013 149.377 260.239 150.637C260.336 151.109 260.444 151.586 260.517 152.064Z" fill="black"/>
<path opacity="0.1" d="M262.359 137.277C262.824 136.496 263.351 135.754 263.936 135.059C262.83 136.117 260.789 135.174 260.36 133.705C260.202 134.299 260.202 134.924 260.36 135.518C260.508 135.962 260.772 136.358 261.123 136.667C261.474 136.976 261.901 137.187 262.359 137.277Z" fill="black"/>
</g>
<path opacity="0.1" d="M413.225 292.376C413.225 292.376 415.139 299.328 413.225 305.373C411.31 311.418 413.225 292.376 413.225 292.376Z" fill="black"/>
<path opacity="0.1" d="M421.379 299.467C421.379 299.467 422.182 308.293 420.37 309.858C418.558 311.424 421.379 299.467 421.379 299.467Z" fill="black"/>
<path d="M120.198 207.261L181.575 206.657" stroke="#45AA29" stroke-width="2" stroke-miterlimit="10"/>
<path d="M120.198 214.8L181.575 214.201" stroke="#45AA29" stroke-width="2" stroke-miterlimit="10"/>
<path d="M120.198 222.344L181.575 221.74" stroke="#45AA29" stroke-width="2" stroke-miterlimit="10"/>
</svg>
