<svg width="718" height="573" viewBox="0 0 718 573" fill="none" xmlns="http://www.w3.org/2000/svg">
<path d="M298.159 573C327.978 573 352.15 566.866 352.15 559.3C352.15 551.733 327.978 545.599 298.159 545.599C268.341 545.599 244.168 551.733 244.168 559.3C244.168 566.866 268.341 573 298.159 573Z" fill="#F2F2F2"/>
<path d="M302.189 421.489C332.007 421.489 356.18 415.356 356.18 407.789C356.18 400.223 332.007 394.089 302.189 394.089C272.37 394.089 248.198 400.223 248.198 407.789C248.198 415.356 272.37 421.489 302.189 421.489Z" fill="#F2F2F2"/>
<path d="M53.991 427.937C83.8094 427.937 107.982 421.803 107.982 414.236C107.982 406.67 83.8094 400.536 53.991 400.536C24.1726 400.536 0 406.67 0 414.236C0 421.803 24.1726 427.937 53.991 427.937Z" fill="#F2F2F2"/>
<path d="M326.847 3.22363H18.2119V14.9093H326.847V3.22363Z" fill="#F5F5F5"/>
<path d="M331.682 0H12.571V391.671H331.682V0Z" fill="url(#paint0_linear)"/>
<path d="M326.847 14.9093H18.2119V385.224H326.847V14.9093Z" fill="white"/>
<path d="M24.578 12.0886C26.1357 12.0886 27.3984 10.8258 27.3984 9.26794C27.3984 7.71012 26.1357 6.44727 24.578 6.44727C23.0203 6.44727 21.7576 7.71012 21.7576 9.26794C21.7576 10.8258 23.0203 12.0886 24.578 12.0886Z" fill="#FF5252"/>
<path d="M32.3141 12.0886C33.8718 12.0886 35.1345 10.8258 35.1345 9.26794C35.1345 7.71012 33.8718 6.44727 32.3141 6.44727C30.7564 6.44727 29.4937 7.71012 29.4937 9.26794C29.4937 10.8258 30.7564 12.0886 32.3141 12.0886Z" fill="#FFFF00"/>
<path d="M40.1307 12.0886C41.6884 12.0886 42.9512 10.8258 42.9512 9.26794C42.9512 7.71012 41.6884 6.44727 40.1307 6.44727C38.5731 6.44727 37.3103 7.71012 37.3103 9.26794C37.3103 10.8258 38.5731 12.0886 40.1307 12.0886Z" fill="#69F0AE"/>
<g opacity="0.2">
<path opacity="0.2" d="M147.146 29.0126H27.0762V36.2658H147.146V29.0126Z" fill="#45AA29"/>
</g>
<path d="M232.564 58.8312H112.495V66.0844H232.564V58.8312Z" fill="#F5F5F5"/>
<path opacity="0.5" d="M147.146 292.544H27.0762V299.797H147.146V292.544Z" fill="#45AA29"/>
<path d="M203.554 291.738H163.262V300.603H203.554V291.738Z" fill="url(#paint1_linear)"/>
<path d="M203.554 336.869H163.262V345.734H203.554V336.869Z" fill="url(#paint2_linear)"/>
<path d="M285.75 336.869H245.458V345.734H285.75V336.869Z" fill="url(#paint3_linear)"/>
<path d="M202.748 292.544H164.874V299.797H202.748V292.544Z" fill="#45AA29"/>
<path d="M202.748 337.675H164.874V344.928H202.748V337.675Z" fill="#45AA29"/>
<path d="M284.138 337.675H246.263V344.928H284.138V337.675Z" fill="#45AA29"/>
<path d="M147.146 315.11H27.0762V322.363H147.146V315.11Z" fill="#F5F5F5"/>
<path opacity="0.5" d="M284.944 315.11H164.874V322.363H284.944V315.11Z" fill="#45AA29"/>
<path d="M284.944 360.24H164.874V367.494H284.944V360.24Z" fill="#F5F5F5"/>
<path opacity="0.5" d="M147.146 337.675H27.0762V344.928H147.146V337.675Z" fill="#45AA29"/>
<path d="M147.146 360.24H27.0762V367.494H147.146V360.24Z" fill="#F5F5F5"/>
<path d="M180.185 70.9198H112.495V78.173H180.185V70.9198Z" fill="#F5F5F5"/>
<path d="M215.642 70.9198H192.272V78.173H215.642V70.9198Z" fill="#F5F5F5"/>
<path d="M180.185 95.097H112.495V102.35H180.185V95.097Z" fill="#F5F5F5"/>
<path d="M215.642 95.097H192.272V102.35H215.642V95.097Z" fill="#F5F5F5"/>
<path d="M232.564 83.0084H112.495V90.2616H232.564V83.0084Z" fill="#F5F5F5"/>
<g opacity="0.2">
<path opacity="0.2" d="M316.371 29.0126H196.302V36.2658H316.371V29.0126Z" fill="#45AA29"/>
</g>
<path d="M278.497 58.0253H263.992V66.8903H278.497V58.0253Z" fill="url(#paint4_linear)"/>
<path d="M278.497 70.1139H263.992V78.9789H278.497V70.1139Z" fill="url(#paint5_linear)"/>
<path d="M278.497 82.2025H263.992V91.0675H278.497V82.2025Z" fill="url(#paint6_linear)"/>
<path d="M277.691 58.8312H264.798V66.0844H277.691V58.8312Z" fill="#FF5252"/>
<path d="M277.691 70.9198H264.798V78.173H277.691V70.9198Z" fill="#FF9800"/>
<path d="M277.691 83.0084H264.798V90.2616H277.691V83.0084Z" fill="#69F0AE"/>
<path d="M278.497 94.2911H263.992V103.156H278.497V94.2911Z" fill="url(#paint7_linear)"/>
<path d="M277.691 95.097H264.798V102.35H277.691V95.097Z" fill="#45AA29"/>
<path d="M320.4 146.675H24.6584V267.561H320.4V146.675Z" fill="url(#paint8_linear)"/>
<path opacity="0.5" d="M316.371 149.093H27.0762V263.532H316.371V149.093Z" fill="#45AA29"/>
<path opacity="0.5" d="M35.9404 157.958H316.371V149.093H27.0762V263.532H35.9404V157.958Z" fill="white"/>
<path d="M26.1897 166.097L323.14 139.1L334.18 261.114L37.3102 288.112L26.1897 166.097Z" fill="url(#paint9_linear)"/>
<path d="M319.381 142.668L31.2717 168.889L41.6427 282.859L329.752 256.637L319.381 142.668Z" fill="white"/>
<path opacity="0.5" d="M52.7823 262.403L47.7861 198.898C47.7861 198.898 73.5729 171.497 125.63 191.806C177.687 212.115 202.265 197.77 210.726 184.069C219.188 170.369 263.106 155.057 277.369 178.025C291.632 200.993 308.635 175.204 308.635 175.204L314.437 238.629L52.7823 262.403Z" fill="#45AA29"/>
<path d="M78.9719 185.117L79.4554 189.872" stroke="#45AA29" stroke-miterlimit="10"/>
<path d="M80.2612 199.14L84.9351 249.992" stroke="#45AA29" stroke-miterlimit="10" stroke-dasharray="11.51 11.51"/>
<path d="M85.3381 254.586L85.7411 259.422" stroke="#45AA29" stroke-miterlimit="10"/>
<path d="M128.531 192.934L129.014 197.77" stroke="#45AA29" stroke-miterlimit="10"/>
<path d="M129.981 208.246L133.285 244.915" stroke="#45AA29" stroke-miterlimit="10" stroke-dasharray="13.06 13.06"/>
<path d="M133.769 250.154L134.172 254.989" stroke="#45AA29" stroke-miterlimit="10"/>
<path d="M179.137 201.557L179.621 206.393" stroke="#45AA29" stroke-miterlimit="10"/>
<path d="M180.346 214.21L183.086 241.692" stroke="#45AA29" stroke-miterlimit="10" stroke-dasharray="9.79 9.79"/>
<path d="M183.489 245.641L183.972 250.476" stroke="#45AA29" stroke-miterlimit="10"/>
<path d="M224.506 173.109L224.989 177.944" stroke="#45AA29" stroke-miterlimit="10"/>
<path d="M225.795 187.051L230.308 236.775" stroke="#45AA29" stroke-miterlimit="10" stroke-dasharray="11.28 11.28"/>
<path d="M230.792 241.369L231.194 246.124" stroke="#45AA29" stroke-miterlimit="10"/>
<path d="M257.384 166.5L257.787 171.336" stroke="#45AA29" stroke-miterlimit="10"/>
<path d="M258.673 180.846L263.428 233.552" stroke="#45AA29" stroke-miterlimit="10" stroke-dasharray="11.93 11.93"/>
<path d="M263.911 238.307L264.314 243.142" stroke="#45AA29" stroke-miterlimit="10"/>
<path d="M82.873 185.096C83.0289 182.876 81.3559 180.95 79.1362 180.794C76.9165 180.638 74.9907 182.311 74.8348 184.531C74.6789 186.751 76.3519 188.677 78.5716 188.833C80.7913 188.989 82.7171 187.315 82.873 185.096Z" fill="#FF9800"/>
<path d="M128.128 197.286C130.353 197.286 132.157 195.482 132.157 193.257C132.157 191.031 130.353 189.227 128.128 189.227C125.903 189.227 124.099 191.031 124.099 193.257C124.099 195.482 125.903 197.286 128.128 197.286Z" fill="#FF5252"/>
<path d="M179.057 205.587C181.282 205.587 183.086 203.783 183.086 201.557C183.086 199.332 181.282 197.528 179.057 197.528C176.832 197.528 175.028 199.332 175.028 201.557C175.028 203.783 176.832 205.587 179.057 205.587Z" fill="#69F0AE"/>
<path d="M224.264 178.831C227.379 178.831 229.905 176.305 229.905 173.189C229.905 170.074 227.379 167.548 224.264 167.548C221.149 167.548 218.623 170.074 218.623 173.189C218.623 176.305 221.149 178.831 224.264 178.831Z" fill="url(#paint10_linear)"/>
<path d="M257.626 172.545C260.741 172.545 263.267 170.019 263.267 166.903C263.267 163.788 260.741 161.262 257.626 161.262C254.51 161.262 251.985 163.788 251.985 166.903C251.985 170.019 254.51 172.545 257.626 172.545Z" fill="url(#paint11_linear)"/>
<path d="M224.264 177.219C226.49 177.219 228.293 175.415 228.293 173.189C228.293 170.964 226.49 169.16 224.264 169.16C222.039 169.16 220.235 170.964 220.235 173.189C220.235 175.415 222.039 177.219 224.264 177.219Z" fill="#45AA29"/>
<path d="M257.626 170.933C259.851 170.933 261.655 169.129 261.655 166.903C261.655 164.678 259.851 162.874 257.626 162.874C255.401 162.874 253.597 164.678 253.597 166.903C253.597 169.129 255.401 170.933 257.626 170.933Z" fill="#45AA29"/>
<path d="M308.716 180.846C310.941 180.846 312.745 179.041 312.745 176.816C312.745 174.591 310.941 172.786 308.716 172.786C306.49 172.786 304.687 174.591 304.687 176.816C304.687 179.041 306.49 180.846 308.716 180.846Z" fill="#69F0AE"/>
<g opacity="0.2">
<path opacity="0.2" d="M316.935 256.843L317.016 257.004C317.58 256.681 316.935 256.843 316.935 256.843Z" fill="url(#paint12_linear)"/>
</g>
<g opacity="0.2">
<path opacity="0.2" d="M310.247 392.235L323.382 390.14L321.609 382.081V382H321.529L312.261 339.287V308.179C312.261 307.776 312.261 307.373 312.181 306.97C326.041 288.515 317.822 259.663 317.016 257.084C316.855 257.165 316.613 257.246 316.371 257.407C316.291 256.278 316.049 255.15 315.726 254.103C315.726 254.103 311.697 251.524 309.522 254.828C307.588 257.729 309.038 259.502 309.441 259.905L309.199 259.986C309.844 260.953 310.247 262 310.489 263.129C310.327 262.887 310.247 262.565 310.086 262.323C309.602 262.242 309.28 262.162 309.28 262.162L309.199 262.081L308.957 262.162C310.327 264.176 310.811 267.803 310.811 272.074C310.327 271.43 309.763 270.785 309.199 270.221C306.621 267.803 303.317 266.352 299.771 266.272H299.126C298.723 266.272 298.401 266.272 297.998 266.352H297.756L297.273 266.433L296.709 266.513L296.306 266.594L295.661 266.755L295.419 266.836C295.178 266.916 294.855 266.997 294.614 267.158C293.727 267.561 292.841 267.884 291.874 268.125C291.713 268.125 291.632 268.125 291.471 268.125C290.423 268.206 289.295 267.884 288.409 267.239L288.086 266.997C288.006 266.916 287.845 266.836 287.764 266.675C287.683 266.916 287.603 267.239 287.603 267.561C287.683 268.286 288.006 268.931 288.57 269.415C288.731 269.576 288.892 269.657 289.053 269.737C289.295 269.898 289.617 269.979 289.94 269.979H290.262H290.182C290.02 270.059 289.779 270.14 289.617 270.221C289.376 270.301 289.215 270.382 288.973 270.382C287.925 270.624 286.797 270.704 285.749 270.462L285.427 270.382C285.266 270.301 285.105 270.301 284.944 270.221C285.024 270.382 285.024 270.462 285.105 270.543L285.185 270.624L285.346 270.865L285.427 270.946L285.588 271.188L285.669 271.268L285.911 271.51L285.991 271.591L286.313 271.832L286.394 271.913L286.636 272.074L286.797 272.155L286.958 272.235L287.119 272.316L287.361 272.397L287.522 272.477L287.764 272.558L288.086 272.638L288.328 272.719H288.489H288.65H288.892H289.698C290.101 272.719 290.504 272.558 290.907 272.397L290.182 272.719L289.779 272.88L289.376 273.041L288.973 273.122L288.57 273.203L288.167 273.283L287.764 273.364L287.361 273.444L286.958 273.525L286.636 273.605L286.152 273.686H285.83H285.346H285.105H284.299C284.782 273.847 285.185 274.008 285.508 274.331C285.749 274.492 285.991 274.653 286.233 274.734C286.313 274.734 286.475 274.814 286.636 274.814H286.716H286.958H288.086H288.409C289.134 274.895 289.859 275.137 290.504 275.459C290.826 275.701 291.149 275.943 291.39 276.265C291.31 276.426 291.149 276.668 291.068 276.829C290.987 276.99 290.907 277.151 290.826 277.313C290.665 277.635 290.504 277.957 290.423 278.36C289.94 279.65 289.698 280.939 289.698 282.309C289.698 282.551 289.698 282.793 289.698 283.035C289.698 283.115 289.698 283.196 289.698 283.276C289.698 283.438 289.698 283.679 289.779 283.841V284.002C289.779 284.243 289.859 284.485 289.94 284.727V284.888C290.02 285.049 290.02 285.291 290.101 285.452L290.182 285.613C290.343 286.097 290.504 286.5 290.665 286.984L290.746 287.145C290.826 287.306 290.907 287.548 290.987 287.709V287.789C291.068 288.031 291.229 288.192 291.39 288.434V288.515C291.471 288.676 291.632 288.918 291.793 289.079L291.874 289.159C292.196 289.562 292.518 289.965 292.841 290.288C293.727 291.174 294.775 291.98 295.903 292.544C295.903 292.705 295.822 292.867 295.822 293.028C295.822 293.189 295.822 293.431 295.822 293.592V297.863C295.581 298.024 295.339 298.105 295.097 298.266C285.024 293.673 269.955 261.195 269.955 261.195H269.552C271.003 260.066 269.552 255.311 269.552 255.311C268.666 254.828 267.699 254.505 266.732 254.344H265.926H265.765H265.684H265.523H265.442L265.281 254.425H265.201L264.959 254.505L264.717 254.586H264.636L264.475 254.667L264.395 255.15L264.234 255.231L264.153 255.311L263.992 255.392L263.911 255.473L263.75 255.634L263.67 255.714L263.508 255.876L263.428 255.956L263.186 256.198C261.01 259.502 263.186 261.356 263.186 261.356C263.025 262.645 262.944 263.935 262.944 265.224C262.783 288.998 288.167 307.373 289.456 308.259C288.892 309.71 284.138 322.846 289.537 339.287C289.537 339.287 289.537 339.368 289.617 339.368C277.208 350.811 271.808 367.897 275.354 384.418L275.435 384.901H275.676C275.676 384.982 275.596 385.143 275.596 385.224C275.515 385.385 275.435 385.627 275.354 385.788C275.193 386.11 275.032 386.352 274.79 386.674C274.548 386.997 274.226 387.238 273.984 387.561L273.662 387.883C272.373 389.092 271.083 390.301 272.05 390.784H285.911V384.74H286.152C286.152 384.74 286.072 384.579 285.911 384.176V384.095H285.83C285.105 382.242 283.412 376.439 286.152 367.494C289.456 356.453 302.269 350.973 302.269 350.973L302.511 351.778H302.43L312.503 384.821C312.503 384.982 312.503 385.062 312.503 385.224C312.423 385.546 312.423 385.868 312.261 386.11C312.181 386.352 312.1 386.594 312.02 386.755C311.375 388.044 310.327 389.576 309.844 390.704C309.763 390.865 309.683 391.026 309.683 391.187C309.602 391.349 309.602 391.59 309.602 391.751C309.602 391.993 309.763 392.235 310.005 392.316H310.166L310.247 392.235ZM306.379 298.186C306.137 298.024 305.895 297.944 305.573 297.783V293.753C305.573 293.431 305.573 293.108 305.492 292.867C306.379 292.464 307.185 291.9 307.91 291.335C307.426 293.753 306.862 296.09 306.379 298.186Z" fill="url(#paint13_linear)"/>
</g>
<path d="M262.622 264.821C262.622 264.821 260.205 262.806 262.622 259.099C265.04 255.392 269.552 258.293 269.552 258.293C269.552 258.293 271.164 263.532 269.552 264.821C267.941 266.111 262.622 264.821 262.622 264.821Z" fill="#CA7070"/>
<path d="M287.684 400.778H276.482C276.563 401.825 276.16 402.873 275.435 403.679C273.904 405.452 270.922 407.547 272.292 408.273H287.684V400.778Z" fill="#00695C"/>
<path opacity="0.2" d="M276.321 403.598C277.046 402.873 277.449 401.825 277.369 400.697H276.563C276.644 401.745 276.241 402.792 275.515 403.598C273.984 405.371 271.003 407.467 272.373 408.192H273.178C271.728 407.467 274.79 405.371 276.321 403.598Z" fill="white"/>
<path d="M327.573 398.44L317.097 400.133C317.419 401.342 317.258 402.712 316.613 403.84C315.485 406.258 312.906 409.24 314.437 409.884L329.587 407.467L327.573 398.44Z" fill="#00695C"/>
<path d="M322.496 259.905C322.496 259.905 334.503 297.702 314.357 318.656L308.555 314.223C308.555 314.223 320.4 272.961 313.793 263.29C325.477 259.341 322.496 259.905 322.496 259.905Z" fill="#00695C"/>
<path d="M314.196 263.209C314.196 263.209 311.778 261.195 314.196 257.487C316.613 253.78 321.126 256.681 321.126 256.681C321.126 256.681 322.737 261.92 321.126 263.209C319.514 264.499 314.196 263.209 314.196 263.209Z" fill="#CA7070"/>
<path opacity="0.2" d="M317.419 403.84C317.983 402.712 318.225 401.422 317.902 400.133L327.572 398.521V398.36L317.097 400.133C317.419 401.342 317.258 402.712 316.613 403.84C315.485 406.258 312.906 409.24 314.437 409.884L315.082 409.804C313.954 408.998 316.291 406.097 317.419 403.84Z" fill="white"/>
<path d="M304.203 295.123C307.346 295.123 309.925 297.702 309.925 300.845V306.325C309.925 309.468 307.346 312.047 304.203 312.047C301.06 312.047 298.482 309.468 298.482 306.325V300.845C298.562 297.622 301.06 295.123 304.203 295.123Z" fill="#CA7070"/>
<path opacity="0.2" d="M309.36 316.56C309.36 316.56 321.126 275.781 314.679 265.788C314.115 265.708 313.712 265.627 313.712 265.627L313.631 265.546L313.309 265.627C319.997 275.298 308.071 316.56 308.071 316.56L313.873 320.993L314.357 320.429L309.36 316.56Z" fill="white"/>
<path d="M304.445 301.006C311.388 301.006 317.016 295.378 317.016 288.434C317.016 281.491 311.388 275.862 304.445 275.862C297.502 275.862 291.874 281.491 291.874 288.434C291.874 295.378 297.502 301.006 304.445 301.006Z" fill="#CA7070"/>
<path opacity="0.2" d="M299.932 306.245V300.765C299.932 300.362 300.013 299.959 300.093 299.556C293.888 296.413 291.471 288.757 294.614 282.632C296.628 278.683 300.657 276.104 305.09 275.781H304.364C297.434 275.781 291.793 281.423 291.793 288.354C291.793 293.108 294.452 297.38 298.643 299.556C298.562 299.959 298.482 300.362 298.482 300.765V306.245C298.482 309.388 300.98 311.886 304.042 311.967C304.284 311.967 304.606 311.967 304.848 311.886C302.108 311.564 299.932 309.146 299.932 306.245Z" fill="white"/>
<path d="M317.258 351.134C317.258 351.134 293.002 353.874 292.116 351.134C285.83 331.873 292.116 316.641 292.116 316.641C292.116 309.71 297.756 304.069 304.687 304.069C311.617 304.069 317.258 309.71 317.258 316.641V351.134Z" fill="#00695C"/>
<path d="M317.258 351.134L328.217 401.503H317.258L305.895 364.109C305.895 364.109 291.713 370.234 288.006 382.403C284.299 394.572 288.006 401.503 288.006 401.503H276.241L276.16 400.939C272.211 382.645 278.255 363.706 292.116 351.134" fill="#263238"/>
<path opacity="0.2" d="M293.486 351.134C287.2 331.873 293.486 316.641 293.486 316.641C293.486 310.032 298.643 304.472 305.251 304.069C305.009 304.069 304.687 304.069 304.445 304.069C297.515 304.069 291.874 309.71 291.874 316.641C291.874 316.641 285.588 331.873 291.874 351.134C292.196 352.101 295.5 352.423 299.61 352.343C296.306 352.262 293.727 351.94 293.486 351.134Z" fill="white"/>
<path d="M291.874 316.399C291.874 316.399 259.399 293.673 262.622 264.821H269.955C269.955 264.821 287.442 302.618 298.562 306.245C309.683 309.871 291.874 316.399 291.874 316.399Z" fill="#00695C"/>
<g opacity="0.2">
<path opacity="0.2" d="M306.057 364.995L317.177 401.664H318.789L307.427 364.27C307.427 364.351 306.943 364.592 306.057 364.995Z" fill="white"/>
<path opacity="0.2" d="M293.647 351.295H292.035C278.175 363.867 272.131 382.806 276.079 401.1L276.16 401.664H277.772L277.691 401.1C273.743 382.887 279.867 363.867 293.647 351.295Z" fill="white"/>
</g>
<path opacity="0.2" d="M263.831 265.224H262.622C259.399 294.076 291.874 316.802 291.874 316.802L292.68 316.48C288.892 313.74 260.769 292.141 263.831 265.224Z" fill="white"/>
<path d="M294.372 282.793C295.097 284.405 295.581 286.097 295.822 287.87C296.628 291.416 298.482 294.962 301.624 296.735C303.397 297.702 305.331 298.186 307.265 298.266C310.247 298.427 313.551 297.863 315.646 295.768C316.935 294.317 317.822 292.544 318.225 290.61C319.514 284.808 317.822 278.844 313.631 274.573C309.36 270.462 303.075 269.092 297.515 271.188C296.548 271.671 295.5 272.074 294.453 272.316C292.841 272.558 291.149 271.994 290.02 270.865C289.537 272.316 290.423 273.928 291.874 274.411C292.116 274.492 292.438 274.573 292.76 274.573C290.907 275.459 288.731 275.62 286.716 274.895C287.845 277.313 290.665 278.441 293.163 277.474C290.907 278.522 288.409 279.005 285.911 278.924C286.394 278.924 287.442 279.892 288.086 280.053C288.892 280.214 289.698 280.214 290.504 280.214C292.116 280.214 293.647 281.262 294.372 282.793Z" fill="#263238"/>
<g opacity="0.2">
<path opacity="0.2" d="M292.76 274.411C291.793 274.895 290.826 275.137 289.779 275.217C291.068 275.298 292.357 275.056 293.566 274.411C292.035 274.411 290.746 273.122 290.665 271.591C290.665 271.51 290.665 271.43 290.665 271.349C290.423 271.188 290.182 271.027 290.021 270.785C289.537 272.235 290.423 273.847 291.874 274.331C292.116 274.411 292.438 274.411 292.76 274.411Z" fill="white"/>
<path opacity="0.2" d="M295.258 272.316C296.306 272.074 297.354 271.671 298.321 271.188C299.852 270.543 301.463 270.221 303.156 270.221C301.222 270.14 299.288 270.462 297.515 271.188C296.548 271.671 295.5 272.074 294.452 272.316C294.291 272.316 294.13 272.316 294.05 272.397C294.452 272.397 294.855 272.397 295.258 272.316Z" fill="white"/>
<path opacity="0.2" d="M288.812 279.972C288.167 279.811 287.119 278.844 286.636 278.844C289.134 278.844 291.632 278.36 293.888 277.393C293.405 277.635 292.841 277.716 292.277 277.716C290.182 278.522 288.006 278.925 285.83 278.844C286.314 278.844 287.361 279.811 288.006 279.972C288.57 280.133 289.134 280.133 289.698 280.133C289.376 280.133 289.134 280.053 288.812 279.972Z" fill="white"/>
<path opacity="0.2" d="M308.071 298.266C306.137 298.186 304.203 297.702 302.43 296.735C299.288 294.881 297.515 291.416 296.628 287.87C296.387 286.097 295.903 284.405 295.178 282.793C294.453 281.262 292.922 280.294 291.229 280.214C290.826 280.214 290.423 280.214 290.021 280.214H290.423C292.116 280.294 293.647 281.262 294.372 282.793C295.097 284.405 295.581 286.097 295.823 287.87C296.628 291.416 298.482 294.962 301.625 296.735C303.397 297.702 305.331 298.186 307.265 298.266C307.749 298.266 308.232 298.266 308.716 298.266H308.071Z" fill="white"/>
<path opacity="0.2" d="M291.793 277.635C290.101 277.474 288.489 276.507 287.684 274.976C287.361 274.895 287.039 274.814 286.717 274.734C287.603 276.668 289.618 277.796 291.793 277.635Z" fill="white"/>
</g>
<path opacity="0.2" d="M263.428 264.821C263.428 264.821 261.01 262.806 263.428 259.099C264.073 258.052 265.201 257.326 266.41 257.246C264.878 257.084 263.428 257.81 262.622 259.099C260.205 262.726 262.622 264.821 262.622 264.821C264.153 265.143 265.765 265.385 267.376 265.385C266.087 265.305 264.717 265.143 263.428 264.821Z" fill="white"/>
<g opacity="0.2">
<path opacity="0.2" d="M29.8159 264.982L29.8965 264.74C29.8965 264.821 29.0101 264.66 29.8159 264.982Z" fill="url(#paint14_linear)"/>
</g>
<g opacity="0.2">
<path opacity="0.2" d="M105.726 278.522C105.645 278.28 105.564 278.038 105.403 277.796C105.403 277.716 105.323 277.635 105.323 277.554C105.242 277.393 105.162 277.232 105.081 277.152L104.92 276.91C104.839 276.829 104.759 276.668 104.678 276.587L104.517 276.426C104.436 276.346 104.356 276.265 104.195 276.184L103.953 276.023L103.63 275.862L103.389 275.781L102.986 275.62L102.825 275.54C102.663 275.459 102.502 275.459 102.341 275.379C101.132 275.137 99.9236 275.217 98.7954 275.459C98.7954 275.459 95.4109 280.456 96.7003 282.229L96.2973 282.068C96.2973 282.068 71.2358 310.033 57.0531 315.271C56.7308 315.029 56.3279 314.787 55.9249 314.546V309.307C55.9249 309.065 55.9249 308.904 55.9249 308.662C55.9249 308.421 55.8444 308.26 55.8444 308.018L55.9249 307.937L56.3279 307.695L56.9725 307.292L57.3755 307.051C57.6978 306.889 57.9395 306.648 58.1813 306.406L58.5036 306.164C58.6648 306.003 58.9065 305.842 59.0677 305.681L59.39 305.358C59.6318 305.116 59.793 304.875 60.0347 304.633L60.2765 304.391C60.4376 304.149 60.6794 303.908 60.8405 303.666L61.0823 303.343C61.2435 303.102 61.4046 302.86 61.5658 302.618L61.727 302.376C61.8881 302.054 62.0493 301.732 62.2105 301.329L62.3716 301.006C62.4522 300.684 62.6134 300.442 62.694 300.12C62.694 300.039 62.7746 299.878 62.7746 299.798C62.8551 299.395 63.0163 299.072 63.0969 298.669C63.0969 298.589 63.0969 298.508 63.1775 298.427C63.2581 298.105 63.2581 297.783 63.3386 297.46C63.3386 297.38 63.3386 297.219 63.3386 297.138C63.3386 296.735 63.4192 296.332 63.4192 295.929C63.4192 292.786 62.3716 289.724 60.357 287.306C61.4046 285.614 62.1299 284.646 62.1299 284.646C61.4852 284.244 60.8405 283.841 60.1959 283.438L59.5512 283.035C59.1483 282.793 58.7454 282.551 58.2619 282.309L57.5366 281.906C57.1337 281.665 56.8114 281.503 56.4085 281.342L55.6832 281.02L54.6356 280.536L53.9104 280.214C53.588 280.053 53.1851 279.972 52.8628 279.811L52.2181 279.569C51.8958 279.489 51.4928 279.327 51.1705 279.247L50.6064 279.086C50.2035 279.005 49.8006 278.925 49.3977 278.844L48.9948 278.763C48.4307 278.683 47.9472 278.602 47.3831 278.522C44.0792 278.199 40.7752 278.683 37.713 279.972C37.8742 276.104 38.5189 272.961 39.8888 270.946L39.5665 270.865L39.4859 270.946C39.4859 270.946 39.083 271.027 38.4383 271.188C38.2771 271.51 38.0354 271.833 37.9548 272.155C38.1965 270.785 38.7606 269.495 39.4859 268.287L39.1636 268.206C39.6471 267.722 41.3393 265.627 39.083 262.162C36.4237 258.213 31.5887 261.275 31.5887 261.275C31.1858 262.565 30.944 263.935 30.8634 265.305C30.4605 265.144 30.2188 265.063 30.0576 264.982C27.7207 273.203 26.4313 281.665 26.2702 290.288C17.4866 302.779 13.8603 321.154 13.135 325.103L13.0545 325.425C12.9739 325.748 12.9739 325.828 12.9739 325.828L35.779 326.392C35.779 326.473 35.779 326.554 35.779 326.634V362.739L19.1788 397.876C19.1788 397.876 25.4643 398.118 34.9732 399.327L32.3139 418.105L31.4275 423.343H47.2219C48.9948 419.797 40.2111 418.105 40.2111 418.105H40.05L43.5151 400.536C45.0462 400.778 46.5772 401.019 48.1889 401.342C50.5258 401.825 52.9434 402.067 55.2803 402.148C57.2949 402.228 59.2289 402.148 61.2435 401.906C62.3716 411.416 60.9211 417.057 60.5988 418.024H60.5182L59.6318 423.263H75.4262C76.9573 420.2 70.5106 418.427 68.8183 418.105L68.8989 417.621C69.7047 411.657 69.9465 405.694 69.5436 399.73C71.5582 398.924 73.4922 397.796 75.1844 396.345L75.4262 396.184L75.5068 396.103L63.7416 363.061C65.9173 353.713 58.2619 343.881 62.3716 338.965C66.4814 334.049 63.9833 327.762 63.4998 326.715C74.5398 321.879 96.942 309.791 103.147 288.837C103.63 287.387 103.953 285.855 104.275 284.324C103.953 284.405 107.096 283.115 105.726 278.522Z" fill="url(#paint15_linear)"/>
</g>
<path d="M32.314 271.188C32.314 271.188 20.3071 308.985 40.453 329.938L46.255 325.506C46.255 325.506 34.4092 284.243 41.0171 274.573C29.2519 270.624 32.314 271.188 32.314 271.188Z" fill="#FF5252"/>
<path d="M40.614 274.492C40.614 274.492 43.0315 272.477 40.614 268.77C38.1965 265.063 33.6838 267.964 33.6838 267.964C33.6838 267.964 32.0722 273.203 33.6838 274.492C35.2955 275.781 40.614 274.492 40.614 274.492Z" fill="#F6B9AD"/>
<path d="M50.5259 323.249C47.3831 323.249 44.8044 320.67 44.8044 317.527V312.047C44.8044 308.904 47.3831 306.325 50.5259 306.325C53.6686 306.325 56.2473 308.904 56.2473 312.047V317.527C56.2473 320.67 53.6686 323.249 50.5259 323.249Z" fill="#F6B9AD"/>
<path opacity="0.2" d="M45.3687 327.843C45.3687 327.843 33.6034 287.064 40.0501 277.071C40.6142 276.99 40.9366 276.91 40.9366 276.91L41.0171 276.829L41.3395 276.91C34.651 286.581 46.5774 327.843 46.5774 327.843L40.7754 332.276L40.2919 331.711L45.3687 327.843Z" fill="white"/>
<path d="M50.3647 312.289C57.3075 312.289 62.9358 306.66 62.9358 299.717C62.9358 292.774 57.3075 287.145 50.3647 287.145C43.4219 287.145 37.7937 292.774 37.7937 299.717C37.7937 306.66 43.4219 312.289 50.3647 312.289Z" fill="#F6B9AD"/>
<path opacity="0.2" d="M54.7968 317.527V312.047C54.7968 311.644 54.7162 311.241 54.6356 310.838C60.8405 307.695 63.258 300.039 60.1153 293.914C58.1007 289.965 54.0715 287.387 49.6394 287.064H50.3647C57.2949 287.064 62.9357 292.706 62.9357 299.636C62.9357 304.391 60.2764 308.663 56.0861 310.838C56.1667 311.241 56.2473 311.644 56.2473 312.047V317.527C56.2473 320.671 53.7492 323.169 50.687 323.249C50.4452 323.249 50.1229 323.249 49.8812 323.169C52.7016 322.846 54.7968 320.429 54.7968 317.527Z" fill="white"/>
<path d="M37.552 362.416C37.552 362.416 61.8077 365.157 62.6941 362.416C65.5951 353.551 57.8591 343.961 61.7271 339.287C65.7563 334.451 62.6941 327.924 62.6941 327.924C62.6941 320.993 57.0532 315.351 50.123 315.351C43.1929 315.351 37.552 320.993 37.552 327.924V362.416Z" fill="#FF5252"/>
<path opacity="0.2" d="M61.8076 339.287C65.8368 334.451 62.7746 327.924 62.7746 327.924C62.7746 320.993 57.1337 315.351 50.2035 315.351C49.9618 315.351 49.6395 315.351 49.3977 315.351C56.0056 315.754 61.1629 321.235 61.1629 327.924C61.1629 327.924 64.2251 334.451 60.1959 339.287C56.3279 343.961 64.0639 353.551 61.1629 362.416C60.9212 363.222 58.4231 363.625 55.0386 363.625C59.1483 363.625 62.4523 363.384 62.7746 362.416C65.6756 353.551 57.859 343.961 61.8076 339.287Z" fill="white"/>
<path d="M57.5367 361.611C66.4009 374.183 70.3495 393.202 67.7708 411.416L67.6902 411.98H60.1154C60.1154 411.98 62.4523 405.049 60.1154 392.88C58.6649 385.546 54.5551 379.099 48.6725 374.586L41.3394 411.98H34.3286L41.3394 361.611H57.5367Z" fill="#F6B9AD"/>
<path d="M100.246 289.159C100.246 289.159 103.147 287.951 101.938 283.679C100.729 279.408 95.5721 280.859 95.5721 280.859C95.5721 280.859 92.4293 285.452 93.638 287.064C94.8468 288.676 100.246 289.159 100.246 289.159Z" fill="#F6B9AD"/>
<path d="M57.1338 329.938C57.1338 329.938 94.8469 317.689 100.165 289.159L93.1547 286.984C93.1547 286.984 65.4339 318.011 53.6687 318.172C41.9035 318.333 57.1338 329.938 57.1338 329.938Z" fill="#FF5252"/>
<path opacity="0.2" d="M98.9566 289.24L100.165 289.562C94.8468 318.092 57.1337 330.341 57.1337 330.341L56.489 329.858C60.8405 328.246 93.9604 315.835 98.9566 289.24Z" fill="white"/>
<g opacity="0.2">
<path opacity="0.2" d="M47.0609 374.586L39.7278 411.98H41.3395L48.4308 375.714C48.0279 375.311 47.5444 374.989 47.0609 374.586Z" fill="white"/>
<path opacity="0.2" d="M57.5367 361.611H55.925C64.7892 374.183 68.7378 393.202 66.1592 411.416L66.0786 411.98H67.6903L67.7708 411.416C70.3495 393.202 66.4009 374.183 57.5367 361.611Z" fill="white"/>
</g>
<path opacity="0.2" d="M99.4403 288.918C99.4403 288.918 102.341 287.709 101.133 283.438C100.81 282.229 99.9238 281.262 98.7956 280.778C100.327 281.02 101.535 282.148 101.938 283.679C103.228 287.87 100.246 289.16 100.246 289.16C98.6345 288.998 97.0228 288.757 95.4917 288.273C96.781 288.595 98.151 288.837 99.4403 288.918Z" fill="white"/>
<path d="M37.5519 361.046L22.241 393.283C31.1857 393.766 40.0499 394.814 48.8336 396.506C65.7561 399.73 73.8145 391.671 73.8145 391.671L62.8551 361.046H37.5519Z" fill="#263238"/>
<path d="M41.5811 411.819C41.5811 411.819 49.6394 413.43 48.0277 416.654H33.5227L34.3285 411.819H41.5811Z" fill="#FF5252"/>
<path d="M67.3679 411.819C67.3679 411.819 75.4263 413.43 73.8146 416.654H59.3096L60.1154 411.819H67.3679Z" fill="#FF5252"/>
<path d="M61.7269 289.321C61.7269 289.321 42.3869 316.722 51.2511 328.004L16.6001 327.198C16.6001 327.198 26.2701 265.143 61.7269 289.321Z" fill="#FCCC63"/>
<path opacity="0.2" d="M61.7269 289.321C56.7307 285.936 52.2181 284.244 48.1889 283.841C51.5734 284.888 54.7967 286.5 57.6977 288.515C57.6977 288.515 38.3577 315.916 47.2219 327.198L16.6807 326.473C16.6001 326.957 16.6001 327.198 16.6001 327.198L51.2511 328.004C42.3869 316.722 61.7269 289.321 61.7269 289.321Z" fill="white"/>
<path opacity="0.2" d="M62.9357 361.046H60.5182L71.4775 391.671C71.4775 391.671 66.2396 396.909 55.4414 397.232C67.9319 397.635 73.8951 391.671 73.8951 391.671L62.9357 361.046Z" fill="white"/>
<path opacity="0.2" d="M41.5812 411.819H39.9695C39.9695 411.819 48.0278 413.43 46.4162 416.654H48.0278C49.6395 413.43 41.5812 411.819 41.5812 411.819Z" fill="white"/>
<path opacity="0.2" d="M67.368 411.819H65.7563C65.7563 411.819 73.8147 413.43 72.203 416.654H73.8147C75.4264 413.43 67.368 411.819 67.368 411.819Z" fill="white"/>
<path d="M712.037 135.151H403.402V146.836H712.037V135.151Z" fill="#F5F5F5"/>
<path d="M718 131.443H397.277V531.173H718V131.443Z" fill="url(#paint16_linear)"/>
<path d="M712.037 146.836H403.402V517.151H712.037V146.836Z" fill="white"/>
<path d="M410.573 144.016C412.131 144.016 413.394 142.753 413.394 141.195C413.394 139.637 412.131 138.374 410.573 138.374C409.016 138.374 407.753 139.637 407.753 141.195C407.753 142.753 409.016 144.016 410.573 144.016Z" fill="#FF5252"/>
<path d="M418.309 144.016C419.867 144.016 421.13 142.753 421.13 141.195C421.13 139.637 419.867 138.374 418.309 138.374C416.752 138.374 415.489 139.637 415.489 141.195C415.489 142.753 416.752 144.016 418.309 144.016Z" fill="#FFFF00"/>
<path d="M426.126 144.016C427.684 144.016 428.946 142.753 428.946 141.195C428.946 139.637 427.684 138.374 426.126 138.374C424.568 138.374 423.306 139.637 423.306 141.195C423.306 142.753 424.568 144.016 426.126 144.016Z" fill="#69F0AE"/>
<g opacity="0.2">
<path opacity="0.2" d="M693.503 163.357H422.742V170.611H693.503V163.357Z" fill="#45AA29"/>
</g>
<path d="M537.976 194.788H421.13V318.897H537.976V194.788Z" fill="url(#paint17_linear)"/>
<path d="M535.559 198.817H423.547V314.868H535.559V198.817Z" fill="white"/>
<path d="M693.503 256.843H576.656V380.952H693.503V256.843Z" fill="url(#paint18_linear)"/>
<path d="M691.085 260.872H579.074V376.923H691.085V260.872Z" fill="white"/>
<path d="M698.337 409.965H423.547V495.391H698.337V409.965Z" fill="url(#paint19_linear)"/>
<path opacity="0.5" d="M693.502 415.606H429.188V492.168H693.502V415.606Z" fill="#45AA29"/>
<path opacity="0.5" d="M435.635 422.859H693.502V415.606H429.188V492.168H435.635V422.859Z" fill="white"/>
<path d="M517.024 224.203C499.054 203.25 467.466 200.913 446.594 218.884C425.643 236.856 423.306 268.448 441.276 289.321C459.246 310.274 490.835 312.611 511.706 294.64C522.746 285.13 529.112 271.349 529.112 256.762C529.112 244.835 524.841 233.31 517.024 224.203ZM496.879 286.661C480.44 296.413 459.165 291.013 449.415 274.492C439.664 258.051 445.063 236.776 461.583 227.024C478.103 217.273 499.296 222.672 509.047 239.193C512.189 244.512 513.882 250.637 513.882 256.843C513.882 269.092 507.435 280.456 496.879 286.661Z" fill="url(#paint20_linear)"/>
<path d="M504.212 235.244L515.252 225.735C506.226 215.258 493.091 209.214 479.231 209.214V223.72C488.82 223.8 497.926 227.991 504.212 235.244Z" fill="#FF5252"/>
<path d="M479.15 289.885C474.476 289.885 469.802 288.918 465.532 286.903L459.568 300.12C473.751 306.567 490.11 305.6 503.486 297.702L496.073 285.211C490.915 288.273 485.113 289.885 479.15 289.885Z" fill="#69F0AE"/>
<path d="M526.695 256.843C526.695 245.479 522.585 234.438 515.171 225.815L504.131 235.325C516.058 249.106 514.526 269.898 500.747 281.826C499.296 283.115 497.684 284.243 495.992 285.291L503.406 297.783C517.911 289.159 526.695 273.605 526.695 256.843Z" fill="#FF9800"/>
<path d="M446.111 256.843C446.111 238.629 460.938 223.8 479.15 223.8V209.294C452.88 209.294 431.606 230.57 431.606 256.843C431.606 275.54 442.565 292.464 459.488 300.12L465.451 286.903C453.686 281.584 446.111 269.818 446.111 256.843Z" fill="#45AA29"/>
<path d="M679.803 277.796H594.385V292.302H679.803V277.796Z" fill="url(#paint21_linear)"/>
<path d="M678.998 278.602H595.191V291.497H678.998V278.602Z" fill="#45AA29"/>
<path d="M656.434 300.362H595.191V313.256H656.434V300.362Z" fill="#FF5252"/>
<path d="M637.094 322.121H595.191V335.016H637.094V322.121Z" fill="#69F0AE"/>
<path d="M670.939 343.881H595.191V356.775H670.939V343.881Z" fill="#FF9800"/>
<path d="M543.617 338.239H423.547V345.492H543.617V338.239Z" fill="#F5F5F5"/>
<path d="M491.238 350.328H423.547V357.581H491.238V350.328Z" fill="#F5F5F5"/>
<path d="M526.694 350.328H503.325V357.581H526.694V350.328Z" fill="#F5F5F5"/>
<path d="M526.694 376.923H503.325V384.176H526.694V376.923Z" fill="#F5F5F5"/>
<path d="M491.238 374.505H423.547V381.758H491.238V374.505Z" fill="#F5F5F5"/>
<path d="M543.617 362.417H423.547V369.67H543.617V362.417Z" fill="#F5F5F5"/>
<path d="M695.114 195.594H575.045V202.847H695.114V195.594Z" fill="#F5F5F5"/>
<path d="M642.735 207.682H575.045V214.935H642.735V207.682Z" fill="#F5F5F5"/>
<path d="M678.192 207.682H654.822V214.935H678.192V207.682Z" fill="#F5F5F5"/>
<path d="M678.192 234.277H654.822V241.53H678.192V234.277Z" fill="#F5F5F5"/>
<path d="M642.735 231.859H575.045V239.113H642.735V231.859Z" fill="#F5F5F5"/>
<path d="M695.114 219.771H575.045V227.024H695.114V219.771Z" fill="#F5F5F5"/>
<path d="M612.919 563.893C617.814 563.893 621.783 559.924 621.783 555.028C621.783 550.132 617.814 546.163 612.919 546.163C608.023 546.163 604.055 550.132 604.055 555.028C604.055 559.924 608.023 563.893 612.919 563.893Z" fill="url(#paint22_linear)"/>
<path d="M612.919 561.476C616.479 561.476 619.366 558.589 619.366 555.028C619.366 551.468 616.479 548.581 612.919 548.581C609.358 548.581 606.472 551.468 606.472 555.028C606.472 558.589 609.358 561.476 612.919 561.476Z" fill="#FF5252"/>
<path d="M628.23 456.708H351.022V554.222H628.23V456.708Z" fill="url(#paint23_linear)"/>
<path d="M623.395 460.737H359.081V537.298H623.395V460.737Z" fill="white"/>
<path d="M367.945 522.792H612.919" stroke="#45AA29" stroke-width="3" stroke-miterlimit="10"/>
<path d="M406.625 476.049H370.362V520.374H406.625V476.049Z" fill="url(#paint24_linear)"/>
<path d="M404.61 478.064H372.377V519.165H404.61V478.064Z" fill="#45AA29"/>
<path d="M606.472 507.48H574.239V520.374H606.472V507.48Z" fill="#69F0AE"/>
<path d="M546.034 490.556H513.801V519.568H546.034V490.556Z" fill="#FF9800"/>
<path d="M475.121 495.391H442.887V519.568H475.121V495.391Z" fill="#FF5252"/>
<path d="M623.395 537.298H359.081V548.581H623.395V537.298Z" fill="#FF5252"/>
<path d="M370.362 563.893C375.258 563.893 379.226 559.924 379.226 555.028C379.226 550.132 375.258 546.163 370.362 546.163C365.467 546.163 361.498 550.132 361.498 555.028C361.498 559.924 365.467 563.893 370.362 563.893Z" fill="url(#paint25_linear)"/>
<path d="M370.362 561.476C373.923 561.476 376.809 558.589 376.809 555.028C376.809 551.468 373.923 548.581 370.362 548.581C366.802 548.581 363.916 551.468 363.916 555.028C363.916 558.589 366.802 561.476 370.362 561.476Z" fill="#FF5252"/>
<path d="M359.08 463.961H352.634V548.581H359.08V463.961Z" fill="#FF5252"/>
<path opacity="0.2" d="M359.08 463.961H352.634V548.581H359.08V463.961Z" fill="black"/>
<path d="M359.564 472.906C359.564 472.826 359.564 472.745 359.564 472.665C359.564 472.584 359.564 472.423 359.564 472.262C359.564 472.1 359.564 472.1 359.484 472.02C359.403 471.939 359.403 471.778 359.403 471.697C359.403 471.617 359.322 471.536 359.322 471.456C359.322 471.375 359.242 471.214 359.161 471.133L359.081 470.892C359 470.811 358.919 470.65 358.839 470.569L358.758 470.408C358.678 470.247 358.517 470.086 358.436 470.005C357.791 469.28 357.066 468.796 356.18 468.313C356.824 467.587 357.308 466.781 357.63 465.814C357.711 465.573 357.791 465.331 357.791 465.089C357.791 465.008 357.791 464.928 357.791 464.847C357.791 464.686 357.791 464.525 357.791 464.364C357.791 464.283 357.791 464.203 357.791 464.122C357.791 464.041 357.791 463.88 357.791 463.719C357.791 463.558 357.791 463.558 357.711 463.477C357.63 463.397 357.63 463.235 357.63 463.155C357.63 463.074 357.55 462.994 357.55 462.913C357.55 462.833 357.469 462.671 357.388 462.591L357.308 462.349C357.227 462.268 357.147 462.107 357.066 462.027L356.985 461.865C356.905 461.704 356.744 461.543 356.663 461.462C355.857 460.657 354.89 459.931 353.843 459.528C353.843 459.528 348.766 461.382 348.363 463.477C344.576 464.283 322.737 468.877 307.668 468.474L307.588 468.151C307.588 463.235 304.848 458.642 300.496 456.305V451.308C300.496 451.066 300.496 450.905 300.496 450.663C300.496 450.422 300.416 450.26 300.416 450.019L300.496 449.938L300.899 449.696L301.463 449.293L301.866 449.051C302.108 448.89 302.43 448.649 302.672 448.407L302.994 448.165C303.156 448.004 303.397 447.843 303.559 447.681L303.881 447.359C304.123 447.117 304.284 446.876 304.526 446.634L304.767 446.392C304.928 446.15 305.17 445.908 305.331 445.667L305.573 445.344C305.734 445.103 305.895 444.861 306.057 444.619L306.218 444.377C306.379 444.055 306.54 443.732 306.701 443.41L306.862 443.088C306.943 442.846 307.104 442.524 307.185 442.282L307.265 441.96C307.346 441.557 307.507 441.234 307.588 440.831C307.588 440.751 307.588 440.67 307.588 440.589C307.668 440.267 307.668 439.945 307.749 439.622C307.749 439.542 307.749 439.381 307.749 439.3C307.749 438.897 307.829 438.494 307.829 438.091C307.829 435.835 307.265 433.578 306.137 431.563C307.024 431.322 307.507 431.16 307.427 431.08C307.104 430.677 306.782 430.193 306.379 429.79L306.057 429.387C305.815 429.146 305.573 428.823 305.331 428.581L304.928 428.178C304.687 427.937 304.445 427.695 304.203 427.534L303.8 427.211C303.478 426.97 303.156 426.728 302.914 426.486L302.672 426.325C302.269 426.083 301.947 425.761 301.544 425.519L301.141 425.277C300.899 425.116 300.658 424.955 300.416 424.874L299.771 424.713L299.046 424.391L298.562 424.149C298.321 424.068 298.079 423.988 297.837 423.907L297.354 423.746C296.951 423.585 296.628 423.504 296.225 423.424L295.661 423.262L295.017 423.101L294.372 423.021L293.808 422.94L293.163 422.859H292.599H291.954C291.632 422.859 291.229 422.859 290.907 422.94C282.687 423.585 275.435 430.838 275.435 442.282V451.711H288.328V455.982C283.574 458.158 280.592 462.913 280.592 468.071V504.74L269.633 555.028H269.472L267.296 564.619L282.768 567.117L283.413 567.197C285.024 566.472 282.284 563.249 281.076 560.75C280.915 560.508 280.834 560.186 280.753 559.944C280.592 559.461 280.512 558.897 280.431 558.413L292.277 519.488H292.196L292.438 518.601C292.438 518.601 307.507 525.048 311.456 538.024C314.598 548.5 312.664 555.351 311.778 557.527H311.697V557.688C311.536 558.091 311.375 558.332 311.375 558.332H311.697V565.424H328.056C329.587 564.619 326.364 562.443 324.752 560.589C324.188 560.025 323.866 559.3 323.704 558.574H323.946L324.107 558.01C328.298 538.588 321.851 518.44 307.265 504.981C307.265 504.901 307.346 504.901 307.346 504.82C308.877 500.065 309.844 495.23 310.166 490.233C322.657 491.442 339.257 490.556 351.667 480.965C352.876 480.079 354.004 479.112 355.051 478.064C356.099 477.984 358.033 477.419 359.081 474.357C359.161 474.115 359.242 473.873 359.242 473.632C359.242 473.551 359.242 473.47 359.242 473.39C359.484 473.309 359.484 473.148 359.564 472.906Z" fill="url(#paint26_linear)"/>
<path d="M294.13 487.171C294.13 487.171 331.924 499.179 352.876 479.112L348.443 473.309C348.443 473.309 307.829 482.335 298.159 475.727C288.489 469.119 294.13 487.171 294.13 487.171Z" fill="#45AA29"/>
<path opacity="0.2" d="M351.748 478.306L352.473 479.273C331.521 499.34 293.727 487.332 293.727 487.332C293.727 487.332 293.647 487.01 293.486 486.526C298.079 487.896 332.246 497.084 351.748 478.306Z" fill="white"/>
<path d="M352.07 479.112C352.07 479.112 355.132 479.837 356.582 475.646C358.033 471.456 353.037 469.683 353.037 469.683C353.037 469.683 347.879 471.617 347.879 473.632C347.879 475.646 352.07 479.112 352.07 479.112Z" fill="#985454"/>
<path opacity="0.2" d="M351.586 478.387C351.586 478.387 354.649 479.112 356.099 474.921C356.583 473.793 356.421 472.423 355.696 471.375C356.744 472.503 357.066 474.115 356.583 475.566C355.132 479.757 352.07 479.031 352.07 479.031C350.861 477.984 349.733 476.855 348.766 475.566C349.572 476.613 350.539 477.581 351.586 478.387Z" fill="white"/>
<path d="M312.02 553.9H323.221C323.14 554.948 323.543 555.995 324.268 556.801C325.8 558.574 328.781 560.67 327.411 561.395H312.02V553.9Z" fill="#45AA29"/>
<path opacity="0.2" d="M323.463 556.721C322.737 555.995 322.334 554.948 322.415 553.819H323.221C323.14 554.867 323.543 555.915 324.268 556.721C325.799 558.494 328.781 560.589 327.411 561.314H326.605C327.975 560.589 324.994 558.494 323.463 556.721Z" fill="white"/>
<path d="M272.131 551.563L282.607 553.255C282.284 554.464 282.445 555.834 283.09 556.962C284.218 559.38 286.797 562.362 285.266 563.007L270.116 560.589L272.131 551.563Z" fill="#45AA29"/>
<path opacity="0.2" d="M282.284 556.962C281.72 555.834 281.559 554.545 281.801 553.255L272.131 551.643V551.482L282.607 553.175C282.284 554.383 282.446 555.754 283.09 556.882C284.218 559.299 286.797 562.281 285.266 562.926L284.621 562.846C285.83 562.12 283.413 559.219 282.284 556.962Z" fill="white"/>
<path d="M295.5 465.089C292.357 465.089 289.779 462.51 289.779 459.367V453.887C289.779 450.744 292.357 448.165 295.5 448.165C298.643 448.165 301.222 450.744 301.222 453.887V459.367C301.222 462.51 298.643 465.089 295.5 465.089Z" fill="#985454"/>
<path d="M295.339 454.048C302.282 454.048 307.91 448.419 307.91 441.476C307.91 434.533 302.282 428.904 295.339 428.904C288.396 428.904 282.768 434.533 282.768 441.476C282.768 448.419 288.396 454.048 295.339 454.048Z" fill="#985454"/>
<path opacity="0.2" d="M299.771 459.367V453.887C299.771 453.484 299.691 453.081 299.61 452.678C305.815 449.535 308.232 441.879 305.09 435.754C303.075 431.805 299.046 429.226 294.614 428.904H295.339C302.269 428.904 307.91 434.545 307.91 441.476C307.91 446.231 305.251 450.502 301.06 452.678C301.141 453.081 301.222 453.484 301.222 453.887V459.367C301.222 462.51 298.724 465.008 295.661 465.089C295.42 465.089 295.097 465.089 294.856 465.008C297.676 464.686 299.771 462.268 299.771 459.367Z" fill="white"/>
<path d="M282.526 504.256C282.526 504.256 306.782 506.996 307.668 504.256C313.954 484.995 307.668 469.763 307.668 469.763C307.668 462.833 302.027 457.191 295.097 457.191C288.167 457.191 282.526 462.833 282.526 469.763V504.256Z" fill="#45AA29"/>
<path d="M282.526 504.256L271.567 554.625H282.526L293.889 517.231C293.889 517.231 308.071 523.356 311.778 535.525C315.485 547.694 311.778 554.625 311.778 554.625H323.543L323.705 554.061C327.653 535.767 321.609 516.828 307.749 504.256" fill="#263238"/>
<path opacity="0.2" d="M306.298 504.256C312.584 484.995 306.298 469.763 306.298 469.763C306.298 463.155 301.141 457.594 294.533 457.191C294.775 457.191 295.097 457.191 295.339 457.191C302.269 457.191 307.91 462.833 307.91 469.763C307.91 469.763 314.196 484.995 307.91 504.256C307.588 505.223 304.284 505.546 300.174 505.465C303.478 505.465 305.976 505.143 306.298 504.256Z" fill="white"/>
<g opacity="0.2">
<path opacity="0.2" d="M293.647 518.118L282.446 554.786H280.834L292.196 517.392C292.277 517.473 292.76 517.715 293.647 518.118Z" fill="white"/>
<path opacity="0.2" d="M306.057 504.498H307.668C321.529 517.07 327.572 536.009 323.624 554.303L323.463 554.867H321.851L322.012 554.303C325.961 536.009 319.917 516.989 306.057 504.498Z" fill="white"/>
</g>
<path d="M292.519 479.112C292.519 479.112 330.312 491.12 351.264 471.053L346.832 465.25C346.832 465.25 306.218 474.276 296.548 467.668C286.878 461.06 292.519 479.112 292.519 479.112Z" fill="#45AA29"/>
<path opacity="0.2" d="M350.136 470.247L350.861 471.214C329.909 491.281 292.116 479.273 292.116 479.273C292.116 479.273 292.035 478.951 291.874 478.467C296.467 479.837 330.635 489.024 350.136 470.247Z" fill="white"/>
<path d="M350.458 471.053C350.458 471.053 353.52 471.778 354.971 467.587C356.421 463.397 351.425 461.624 351.425 461.624C351.425 461.624 346.268 463.558 346.268 465.573C346.268 467.587 350.458 471.053 350.458 471.053Z" fill="#985454"/>
<path opacity="0.2" d="M349.975 470.327C349.975 470.327 353.037 471.053 354.487 466.862C354.971 465.734 354.81 464.364 354.085 463.316C355.132 464.444 355.454 466.056 354.971 467.507C353.52 471.697 350.458 470.972 350.458 470.972C349.249 469.924 348.121 468.796 347.154 467.507C347.96 468.554 348.927 469.521 349.975 470.327Z" fill="white"/>
<path d="M296.225 437.366L295.42 454.29H277.691V445.264C277.691 427.211 296.789 420.361 307.507 434.867C307.829 435.27 296.225 437.366 296.225 437.366Z" fill="#263238"/>
<path opacity="0.2" d="M292.277 427.131C296.79 427.534 301.463 429.951 305.09 434.948C305.331 435.27 293.808 437.366 293.808 437.366L293.002 454.29H295.42L296.225 437.366C296.225 437.366 307.749 435.27 307.507 434.948C303.236 429.065 297.515 426.728 292.277 427.131Z" fill="white"/>
<defs>
<linearGradient id="paint0_linear" x1="172.143" y1="391.671" x2="172.143" y2="0" gradientUnits="userSpaceOnUse">
<stop stop-color="#808080" stop-opacity="0.25"/>
<stop offset="0.54" stop-color="#808080" stop-opacity="0.12"/>
<stop offset="1" stop-color="#808080" stop-opacity="0.1"/>
</linearGradient>
<linearGradient id="paint1_linear" x1="183.424" y1="300.603" x2="183.424" y2="291.738" gradientUnits="userSpaceOnUse">
<stop stop-color="#808080" stop-opacity="0.25"/>
<stop offset="0.54" stop-color="#808080" stop-opacity="0.12"/>
<stop offset="1" stop-color="#808080" stop-opacity="0.1"/>
</linearGradient>
<linearGradient id="paint2_linear" x1="183.424" y1="345.734" x2="183.424" y2="336.869" gradientUnits="userSpaceOnUse">
<stop stop-color="#808080" stop-opacity="0.25"/>
<stop offset="0.54" stop-color="#808080" stop-opacity="0.12"/>
<stop offset="1" stop-color="#808080" stop-opacity="0.1"/>
</linearGradient>
<linearGradient id="paint3_linear" x1="265.62" y1="345.734" x2="265.62" y2="336.869" gradientUnits="userSpaceOnUse">
<stop stop-color="#808080" stop-opacity="0.25"/>
<stop offset="0.54" stop-color="#808080" stop-opacity="0.12"/>
<stop offset="1" stop-color="#808080" stop-opacity="0.1"/>
</linearGradient>
<linearGradient id="paint4_linear" x1="271.261" y1="66.8903" x2="271.261" y2="58.0253" gradientUnits="userSpaceOnUse">
<stop stop-color="#808080" stop-opacity="0.25"/>
<stop offset="0.54" stop-color="#808080" stop-opacity="0.12"/>
<stop offset="1" stop-color="#808080" stop-opacity="0.1"/>
</linearGradient>
<linearGradient id="paint5_linear" x1="271.261" y1="78.9789" x2="271.261" y2="70.1139" gradientUnits="userSpaceOnUse">
<stop stop-color="#808080" stop-opacity="0.25"/>
<stop offset="0.54" stop-color="#808080" stop-opacity="0.12"/>
<stop offset="1" stop-color="#808080" stop-opacity="0.1"/>
</linearGradient>
<linearGradient id="paint6_linear" x1="271.261" y1="91.0675" x2="271.261" y2="82.2025" gradientUnits="userSpaceOnUse">
<stop stop-color="#808080" stop-opacity="0.25"/>
<stop offset="0.54" stop-color="#808080" stop-opacity="0.12"/>
<stop offset="1" stop-color="#808080" stop-opacity="0.1"/>
</linearGradient>
<linearGradient id="paint7_linear" x1="271.261" y1="103.156" x2="271.261" y2="94.2911" gradientUnits="userSpaceOnUse">
<stop stop-color="#808080" stop-opacity="0.25"/>
<stop offset="0.54" stop-color="#808080" stop-opacity="0.12"/>
<stop offset="1" stop-color="#808080" stop-opacity="0.1"/>
</linearGradient>
<linearGradient id="paint8_linear" x1="172.545" y1="267.561" x2="172.545" y2="146.675" gradientUnits="userSpaceOnUse">
<stop stop-color="#808080" stop-opacity="0.25"/>
<stop offset="0.54" stop-color="#808080" stop-opacity="0.12"/>
<stop offset="1" stop-color="#808080" stop-opacity="0.1"/>
</linearGradient>
<linearGradient id="paint9_linear" x1="185.744" y1="274.584" x2="174.641" y2="152.588" gradientUnits="userSpaceOnUse">
<stop stop-color="#808080" stop-opacity="0.25"/>
<stop offset="0.54" stop-color="#808080" stop-opacity="0.12"/>
<stop offset="1" stop-color="#808080" stop-opacity="0.1"/>
</linearGradient>
<linearGradient id="paint10_linear" x1="224.766" y1="178.772" x2="223.744" y2="167.535" gradientUnits="userSpaceOnUse">
<stop stop-color="#808080" stop-opacity="0.25"/>
<stop offset="0.54" stop-color="#808080" stop-opacity="0.12"/>
<stop offset="1" stop-color="#808080" stop-opacity="0.1"/>
</linearGradient>
<linearGradient id="paint11_linear" x1="258.18" y1="172.497" x2="257.157" y2="161.261" gradientUnits="userSpaceOnUse">
<stop stop-color="#808080" stop-opacity="0.25"/>
<stop offset="0.54" stop-color="#808080" stop-opacity="0.12"/>
<stop offset="1" stop-color="#808080" stop-opacity="0.1"/>
</linearGradient>
<linearGradient id="paint12_linear" x1="317.062" y1="257.036" x2="317.062" y2="256.826" gradientUnits="userSpaceOnUse">
<stop stop-color="#808080" stop-opacity="0.25"/>
<stop offset="0.54" stop-color="#808080" stop-opacity="0.12"/>
<stop offset="1" stop-color="#808080" stop-opacity="0.1"/>
</linearGradient>
<linearGradient id="paint13_linear" x1="292.602" y1="392.3" x2="292.602" y2="253.057" gradientUnits="userSpaceOnUse">
<stop stop-color="#808080" stop-opacity="0.25"/>
<stop offset="0.54" stop-color="#808080" stop-opacity="0.12"/>
<stop offset="1" stop-color="#808080" stop-opacity="0.1"/>
</linearGradient>
<linearGradient id="paint14_linear" x1="29.6636" y1="265.023" x2="29.6636" y2="264.773" gradientUnits="userSpaceOnUse">
<stop stop-color="#808080" stop-opacity="0.25"/>
<stop offset="0.54" stop-color="#808080" stop-opacity="0.12"/>
<stop offset="1" stop-color="#808080" stop-opacity="0.1"/>
</linearGradient>
<linearGradient id="paint15_linear" x1="59.4011" y1="423.383" x2="59.4011" y2="260.218" gradientUnits="userSpaceOnUse">
<stop stop-color="#808080" stop-opacity="0.25"/>
<stop offset="0.54" stop-color="#808080" stop-opacity="0.12"/>
<stop offset="1" stop-color="#808080" stop-opacity="0.1"/>
</linearGradient>
<linearGradient id="paint16_linear" x1="557.639" y1="531.133" x2="557.639" y2="131.403" gradientUnits="userSpaceOnUse">
<stop stop-color="#808080" stop-opacity="0.25"/>
<stop offset="0.54" stop-color="#808080" stop-opacity="0.12"/>
<stop offset="1" stop-color="#808080" stop-opacity="0.1"/>
</linearGradient>
<linearGradient id="paint17_linear" x1="479.569" y1="318.881" x2="479.569" y2="194.772" gradientUnits="userSpaceOnUse">
<stop stop-color="#808080" stop-opacity="0.25"/>
<stop offset="0.54" stop-color="#808080" stop-opacity="0.12"/>
<stop offset="1" stop-color="#808080" stop-opacity="0.1"/>
</linearGradient>
<linearGradient id="paint18_linear" x1="635.095" y1="380.936" x2="635.095" y2="256.826" gradientUnits="userSpaceOnUse">
<stop stop-color="#808080" stop-opacity="0.25"/>
<stop offset="0.54" stop-color="#808080" stop-opacity="0.12"/>
<stop offset="1" stop-color="#808080" stop-opacity="0.1"/>
</linearGradient>
<linearGradient id="paint19_linear" x1="560.959" y1="495.375" x2="560.959" y2="409.949" gradientUnits="userSpaceOnUse">
<stop stop-color="#808080" stop-opacity="0.25"/>
<stop offset="0.54" stop-color="#808080" stop-opacity="0.12"/>
<stop offset="1" stop-color="#808080" stop-opacity="0.1"/>
</linearGradient>
<linearGradient id="paint20_linear" x1="479.142" y1="306.782" x2="479.142" y2="206.847" gradientUnits="userSpaceOnUse">
<stop stop-color="#808080" stop-opacity="0.25"/>
<stop offset="0.54" stop-color="#808080" stop-opacity="0.12"/>
<stop offset="1" stop-color="#808080" stop-opacity="0.1"/>
</linearGradient>
<linearGradient id="paint21_linear" x1="637.11" y1="292.286" x2="637.11" y2="277.78" gradientUnits="userSpaceOnUse">
<stop stop-color="#808080" stop-opacity="0.25"/>
<stop offset="0.54" stop-color="#808080" stop-opacity="0.12"/>
<stop offset="1" stop-color="#808080" stop-opacity="0.1"/>
</linearGradient>
<linearGradient id="paint22_linear" x1="612.935" y1="563.877" x2="612.935" y2="546.147" gradientUnits="userSpaceOnUse">
<stop stop-color="#808080" stop-opacity="0.25"/>
<stop offset="0.54" stop-color="#808080" stop-opacity="0.12"/>
<stop offset="1" stop-color="#808080" stop-opacity="0.1"/>
</linearGradient>
<linearGradient id="paint23_linear" x1="489.642" y1="554.206" x2="489.642" y2="456.692" gradientUnits="userSpaceOnUse">
<stop stop-color="#808080" stop-opacity="0.25"/>
<stop offset="0.54" stop-color="#808080" stop-opacity="0.12"/>
<stop offset="1" stop-color="#808080" stop-opacity="0.1"/>
</linearGradient>
<linearGradient id="paint24_linear" x1="388.51" y1="520.358" x2="388.51" y2="476.033" gradientUnits="userSpaceOnUse">
<stop stop-color="#808080" stop-opacity="0.25"/>
<stop offset="0.54" stop-color="#808080" stop-opacity="0.12"/>
<stop offset="1" stop-color="#808080" stop-opacity="0.1"/>
</linearGradient>
<linearGradient id="paint25_linear" x1="370.378" y1="563.877" x2="370.378" y2="546.147" gradientUnits="userSpaceOnUse">
<stop stop-color="#808080" stop-opacity="0.25"/>
<stop offset="0.54" stop-color="#808080" stop-opacity="0.12"/>
<stop offset="1" stop-color="#808080" stop-opacity="0.1"/>
</linearGradient>
<linearGradient id="paint26_linear" x1="267.401" y1="495.097" x2="359.524" y2="495.097" gradientUnits="userSpaceOnUse">
<stop stop-color="#808080" stop-opacity="0.25"/>
<stop offset="0.54" stop-color="#808080" stop-opacity="0.12"/>
<stop offset="1" stop-color="#808080" stop-opacity="0.1"/>
</linearGradient>
</defs>
</svg>
