<svg width="640" height="450" viewBox="0 0 640 450" fill="none" xmlns="http://www.w3.org/2000/svg">
<path opacity="0.1" d="M553.741 450C574.024 450 590.466 445.636 590.466 440.253C590.466 434.87 574.024 430.506 553.741 430.506C533.459 430.506 517.016 434.87 517.016 440.253C517.016 445.636 533.459 450 553.741 450Z" fill="#45AA29"/>
<path opacity="0.1" d="M614.308 398.644C600.335 410.233 580.452 415.029 561.224 418.058L557.987 418.551C537.903 421.546 517.596 423.14 497.219 424.11C486.316 424.638 475.414 425.011 464.511 425.343L455.967 425.596C444.873 425.925 433.758 426.248 422.622 426.565C411.719 426.875 400.817 427.166 389.914 427.437C375.951 427.778 361.988 428.061 348.025 428.286C337.122 428.458 326.219 428.577 315.317 428.642C301.35 428.722 287.387 428.696 273.427 428.562C262.517 428.451 251.614 428.26 240.719 427.988C226.749 427.629 212.786 427.103 198.83 426.41C189.358 425.948 179.892 425.391 170.432 424.741L166.122 424.437C125.513 421.511 84.1742 416.262 48.6372 399.671L47.679 399.218C47.2027 398.994 46.7264 398.77 46.2501 398.535C39.7253 395.417 33.4752 391.753 27.5664 387.584C17.0597 380.091 8.38342 370.947 3.79856 360.099C-3.38573 343.083 0.412992 323.957 8.61869 307.32C16.8244 290.684 29.1444 275.665 39.8003 259.997C42.9219 255.408 45.8829 250.646 48.6372 245.764C65.852 215.147 74.3905 179.717 56.3437 150.212C53.9616 146.451 51.3895 142.813 48.6372 139.312C44.236 133.576 39.7602 127.839 36.7361 121.488C29.6838 106.71 31.1987 90.0907 33.7694 74.303C37.2124 53.3121 43.5245 30.7034 63.2526 17.5891C83.7209 3.96992 112.774 4.65834 138.177 9.55756C177.673 17.1244 214.128 32.9637 250.928 47.2483C287.727 61.5329 326.277 74.5956 366.737 76.0011C375.429 76.2985 384.13 75.9822 392.777 75.0546C404.305 73.8703 415.676 71.4763 426.702 67.9123C442.625 62.6688 457.115 54.7807 467.857 43.8177C490.896 20.3829 534.191 18.6102 565.407 32.7629C595.194 46.2673 614.457 74.848 613.034 103.394C611.416 135.17 587.614 161.296 565.803 188.092C563.157 191.339 560.547 194.598 558.004 197.879C556.585 199.711 555.193 201.547 553.827 203.387C551.434 206.634 549.122 209.898 546.941 213.202C535.797 230.143 527.919 250.492 535.591 268.78C539.895 279.021 548.106 286.834 558.004 293.655C580.183 308.932 610.796 319.213 624.568 340.599C636.435 359.032 632.039 383.912 614.308 398.644Z" fill="#45AA29"/>
<g opacity="0.1">
<path opacity="0.1" d="M318.76 315.151C318.783 315.69 318.823 316.218 318.88 316.734C323.345 314.956 327.727 313.044 332.027 310.998C334.321 310.693 336.454 309.65 338.103 308.026C339.36 307.395 340.611 306.735 341.85 306.076C341.57 305.482 341.252 304.907 340.898 304.355C338.482 300.54 334.81 298.153 330.764 298.285C326.719 298.417 323.218 301.039 321.055 304.991C319.395 308.112 318.603 311.62 318.76 315.151Z" fill="#3F3D56"/>
<path opacity="0.1" d="M318.1 295.089C318.186 298.605 319.206 302.034 321.055 305.026C323.476 308.829 327.149 311.216 331.194 311.084C331.475 311.084 331.768 311.044 332.026 311.021C334.321 310.716 336.454 309.673 338.103 308.049C339.222 306.984 340.166 305.749 340.898 304.389C342.517 301.266 343.307 297.78 343.192 294.264C343.078 290.748 342.062 287.321 340.244 284.31C337.822 280.495 334.149 278.109 330.104 278.241C326.059 278.373 322.564 280.994 320.401 284.947C318.742 288.062 317.948 291.564 318.1 295.089Z" fill="#3F3D56"/>
<path opacity="0.1" d="M330.532 291.023C337.46 290.796 342.834 283.262 342.536 274.196C342.239 265.13 336.382 257.965 329.454 258.192C322.527 258.419 317.153 265.953 317.451 275.019C317.748 284.085 323.605 291.25 330.532 291.023Z" fill="#3F3D56"/>
<path opacity="0.1" d="M329.875 270.966C336.802 270.738 342.176 263.204 341.878 254.138C341.581 245.072 335.724 237.907 328.797 238.134C321.87 238.362 316.495 245.895 316.793 254.962C317.091 264.028 322.947 271.193 329.875 270.966Z" fill="#3F3D56"/>
<path opacity="0.1" d="M329.217 250.902C336.144 250.675 341.518 243.141 341.221 234.075C340.923 225.009 335.066 217.844 328.139 218.071C321.212 218.298 315.837 225.832 316.135 234.898C316.433 243.964 322.289 251.129 329.217 250.902Z" fill="#3F3D56"/>
<path opacity="0.1" d="M371.144 95.6726C372.786 93.4361 374.27 91.0879 375.586 88.645L342.453 84.3195L378.099 83.4131C381.274 75.8658 382.875 67.7501 382.804 59.5628C382.733 51.3754 380.991 43.2887 377.686 35.7977L330.684 62.1582L373.721 28.3111C369.339 21.3424 363.572 15.3479 356.778 10.6993C349.983 6.05069 342.306 2.84711 334.222 1.28722C326.138 -0.272666 317.82 -0.155604 309.783 1.63115C301.746 3.4179 294.162 6.83624 287.501 11.6742C280.841 16.5122 275.245 22.6666 271.061 29.7558C266.878 36.8451 264.196 44.718 263.181 52.8863C262.166 61.0547 262.841 69.3443 265.164 77.2412C267.486 85.138 271.406 92.4737 276.681 98.7934C274.124 102.275 271.948 106.022 270.191 109.969L313.693 130.782L267.58 116.979C264.689 126.548 264.23 136.688 266.245 146.479C268.26 156.27 272.685 165.405 279.12 173.056C272.444 182.145 268.461 192.929 267.626 204.174C266.792 215.42 269.139 226.673 274.4 236.647C279.661 246.622 287.624 254.915 297.377 260.579C307.13 266.242 318.281 269.048 329.554 268.675C340.827 268.302 351.767 264.764 361.124 258.468C370.481 252.172 377.877 243.37 382.466 233.069C387.056 222.769 388.653 211.385 387.076 200.219C385.499 189.054 380.811 178.557 373.549 169.93C381.531 159.074 385.633 145.852 385.197 132.385C384.761 118.919 379.812 105.99 371.144 95.6726Z" fill="#45AA29"/>
<path opacity="0.1" d="M265.044 136.324C265.463 149.798 270.423 162.736 279.12 173.039C272.442 182.127 268.457 192.91 267.621 204.155C266.784 215.4 269.129 226.654 274.388 236.63C279.648 246.605 287.608 254.9 297.361 260.565C307.113 266.231 318.263 269.038 329.536 268.667C340.809 268.296 351.75 264.761 361.108 258.466C370.466 252.171 377.864 243.371 382.455 233.071C387.047 222.771 388.646 211.388 387.071 200.222C385.496 189.056 380.81 178.559 373.549 169.93C381.267 159.454 264.826 129.583 265.044 136.324Z" fill="black"/>
</g>
<g opacity="0.1">
<path opacity="0.1" d="M187.17 420.828C187.17 421.207 187.13 421.586 187.084 421.976C183.909 420.714 180.789 419.362 177.725 417.92C176.092 417.706 174.574 416.967 173.399 415.814C172.503 415.359 171.614 414.897 170.73 414.426C170.93 414.007 171.156 413.6 171.407 413.21C173.129 410.491 175.734 408.793 178.615 408.884C181.495 408.976 183.986 410.835 185.5 413.646C186.687 415.849 187.263 418.328 187.17 420.828Z" fill="#3F3D56"/>
<path opacity="0.1" d="M187.618 406.55C187.561 409.051 186.84 411.492 185.529 413.623C183.808 416.331 181.197 418.035 178.322 417.943L177.748 417.897C176.115 417.684 174.597 416.945 173.421 415.792C172.623 415.035 171.951 414.156 171.43 413.187C170.279 410.967 169.716 408.489 169.795 405.989C169.873 403.49 170.59 401.052 171.878 398.908C173.599 396.189 176.21 394.491 179.085 394.583C181.96 394.674 184.456 396.533 186 399.344C187.172 401.559 187.731 404.047 187.618 406.55Z" fill="#3F3D56"/>
<path opacity="0.1" d="M188.081 392.297C188.285 385.846 184.455 380.491 179.526 380.335C174.598 380.179 170.437 385.282 170.233 391.733C170.029 398.184 173.859 403.539 178.788 403.695C183.717 403.851 187.878 398.748 188.081 392.297Z" fill="#3F3D56"/>
<path opacity="0.1" d="M188.527 378.021C188.731 371.57 184.901 366.214 179.972 366.059C175.043 365.903 170.883 371.006 170.679 377.457C170.475 383.907 174.305 389.263 179.234 389.419C184.163 389.574 188.323 384.471 188.527 378.021Z" fill="#3F3D56"/>
<path opacity="0.1" d="M188.979 363.738C189.183 357.288 185.353 351.932 180.424 351.776C175.495 351.621 171.335 356.724 171.131 363.174C170.927 369.625 174.757 374.981 179.686 375.136C184.614 375.292 188.775 370.189 188.979 363.738Z" fill="#3F3D56"/>
<path opacity="0.1" d="M149.717 264.684C148.547 263.093 147.487 261.423 146.544 259.687L170.116 256.555L144.747 255.981C142.48 250.612 141.333 244.837 141.377 239.009C141.42 233.181 142.653 227.423 145 222.088L178.471 240.808L147.817 216.742C150.92 211.76 155.014 207.469 159.847 204.138C164.679 200.806 170.145 198.504 175.906 197.376C181.666 196.248 187.598 196.317 193.33 197.579C199.063 198.841 204.474 201.27 209.228 204.713C213.981 208.157 217.974 212.542 220.959 217.595C223.944 222.648 225.857 228.261 226.578 234.085C227.3 239.909 226.814 245.82 225.152 251.448C223.49 257.076 220.687 262.302 216.917 266.801C218.743 269.277 220.296 271.943 221.548 274.752L190.608 289.599L223.413 279.732C225.478 286.541 225.813 293.757 224.388 300.728C222.964 307.7 219.824 314.206 215.253 319.66C220.014 326.121 222.86 333.791 223.466 341.793C224.072 349.795 222.414 357.806 218.68 364.91C214.947 372.014 209.29 377.925 202.355 381.966C195.42 386.007 187.487 388.016 179.465 387.762C171.442 387.509 163.652 385.004 156.986 380.533C150.32 376.062 145.047 369.806 141.77 362.481C138.493 355.155 137.343 347.056 138.453 339.108C139.563 331.16 142.888 323.685 148.047 317.537C142.358 309.817 139.43 300.409 139.733 290.825C140.036 281.24 143.552 272.036 149.717 264.69V264.684Z" fill="#45AA29"/>
<path opacity="0.1" d="M225.232 293.517C224.944 303.106 221.429 312.317 215.253 319.66C220.014 326.121 222.86 333.791 223.466 341.793C224.072 349.795 222.414 357.806 218.68 364.91C214.947 372.014 209.29 377.925 202.355 381.966C195.42 386.007 187.487 388.016 179.465 387.762C171.442 387.509 163.652 385.004 156.986 380.533C150.32 376.062 145.047 369.807 141.77 362.481C138.493 355.156 137.343 347.056 138.453 339.108C139.563 331.16 142.888 323.685 148.047 317.537C142.544 310.08 225.393 288.716 225.232 293.517Z" fill="black"/>
</g>
<g opacity="0.1">
<path opacity="0.1" d="M486.001 346.221C486.001 346.606 485.961 346.979 485.921 347.369C482.742 346.107 479.622 344.755 476.562 343.313C474.928 343.099 473.407 342.36 472.229 341.208C471.34 340.754 470.445 340.29 469.561 339.819C469.763 339.401 469.989 338.995 470.238 338.603C471.96 335.884 474.565 334.186 477.445 334.277C480.326 334.369 482.816 336.228 484.331 339.039C485.517 341.242 486.094 343.721 486.001 346.221Z" fill="#3F3D56"/>
<path opacity="0.1" d="M486.483 331.943C486.425 334.444 485.702 336.886 484.389 339.016C482.667 341.724 480.062 343.428 477.181 343.336L476.608 343.29C474.973 343.076 473.453 342.337 472.275 341.185C471.479 340.426 470.807 339.547 470.284 338.58C469.133 336.36 468.57 333.882 468.648 331.382C468.727 328.883 469.444 326.445 470.732 324.301C472.453 321.588 475.064 319.884 477.939 319.976C480.814 320.067 483.316 321.926 484.853 324.737C486.03 326.951 486.592 329.439 486.483 331.943Z" fill="#3F3D56"/>
<path opacity="0.1" d="M486.931 317.686C487.135 311.235 483.305 305.879 478.376 305.724C473.448 305.568 469.287 310.671 469.083 317.122C468.879 323.572 472.709 328.928 477.638 329.084C482.567 329.239 486.727 324.136 486.931 317.686Z" fill="#3F3D56"/>
<path opacity="0.1" d="M487.383 303.409C487.587 296.959 483.757 291.603 478.828 291.447C473.899 291.292 469.739 296.395 469.535 302.845C469.331 309.296 473.161 314.652 478.09 314.807C483.019 314.963 487.179 309.86 487.383 303.409Z" fill="#3F3D56"/>
<path opacity="0.1" d="M487.835 289.133C488.039 282.682 484.209 277.327 479.28 277.171C474.351 277.015 470.19 282.118 469.986 288.569C469.782 295.02 473.613 300.375 478.541 300.531C483.47 300.687 487.631 295.584 487.835 289.133Z" fill="#3F3D56"/>
<path opacity="0.1" d="M448.548 190.077C447.376 188.488 446.318 186.818 445.38 185.081L468.953 181.977L443.584 181.363C441.318 175.994 440.171 170.219 440.213 164.391C440.256 158.564 441.487 152.806 443.831 147.47L477.302 166.189L446.648 142.135C449.745 137.141 453.838 132.838 458.672 129.495C463.506 126.152 468.977 123.841 474.743 122.706C480.51 121.571 486.449 121.636 492.19 122.897C497.931 124.159 503.35 126.589 508.109 130.037C512.868 133.485 516.866 137.876 519.852 142.937C522.839 147.998 524.75 153.62 525.467 159.453C526.184 165.285 525.691 171.202 524.019 176.835C522.346 182.469 519.531 187.697 515.748 192.194C517.572 194.67 519.123 197.336 520.373 200.146L489.433 214.992L522.238 205.125C524.306 211.933 524.643 219.149 523.218 226.12C521.793 233.091 518.652 239.596 514.078 245.047C518.84 251.507 521.686 259.177 522.293 267.178C522.9 275.179 521.242 283.19 517.51 290.294C513.777 297.398 508.121 303.308 501.186 307.349C494.252 311.39 486.32 313.399 478.298 313.146C470.275 312.892 462.486 310.387 455.821 305.916C449.156 301.445 443.883 295.19 440.607 287.864C437.331 280.539 436.182 272.44 437.293 264.493C438.404 256.546 441.729 249.071 446.889 242.925C441.2 235.204 438.272 225.796 438.575 216.212C438.878 206.628 442.394 197.424 448.559 190.077H448.548Z" fill="#45AA29"/>
<path opacity="0.1" d="M524.068 218.91C523.781 228.499 520.263 237.709 514.084 245.047C518.844 251.507 521.69 259.176 522.296 267.178C522.903 275.179 521.245 283.189 517.512 290.292C513.779 297.395 508.122 303.305 501.188 307.346C494.254 311.387 486.323 313.395 478.301 313.142C470.279 312.888 462.49 310.383 455.825 305.913C449.16 301.443 443.888 295.188 440.611 287.863C437.334 280.538 436.185 272.439 437.295 264.492C438.406 256.546 441.73 249.072 446.889 242.925C441.38 235.473 524.218 214.103 524.068 218.91Z" fill="black"/>
</g>
<path d="M111.035 437.057C129.102 437.057 143.749 434.242 143.749 430.77C143.749 427.297 129.102 424.482 111.035 424.482C92.9677 424.482 78.3213 427.297 78.3213 430.77C78.3213 434.242 92.9677 437.057 111.035 437.057Z" fill="#45AA29"/>
<path d="M110.49 433.082C112.594 433.082 114.3 430.85 114.3 428.097C114.3 425.344 112.594 423.112 110.49 423.112C108.386 423.112 106.68 425.344 106.68 428.097C106.68 430.85 108.386 433.082 110.49 433.082Z" fill="#3F3D56"/>
<path d="M110.49 426.99C112.594 426.99 114.3 424.758 114.3 422.004C114.3 419.251 112.594 417.019 110.49 417.019C108.386 417.019 106.68 419.251 106.68 422.004C106.68 424.758 108.386 426.99 110.49 426.99Z" fill="#3F3D56"/>
<path d="M110.49 420.897C112.594 420.897 114.3 418.665 114.3 415.912C114.3 413.159 112.594 410.927 110.49 410.927C108.386 410.927 106.68 413.159 106.68 415.912C106.68 418.665 108.386 420.897 110.49 420.897Z" fill="#3F3D56"/>
<path d="M110.49 414.805C112.594 414.805 114.3 412.573 114.3 409.819C114.3 407.066 112.594 404.834 110.49 404.834C108.386 404.834 106.68 407.066 106.68 409.819C106.68 412.573 108.386 414.805 110.49 414.805Z" fill="#3F3D56"/>
<path d="M110.49 408.712C112.594 408.712 114.3 406.48 114.3 403.727C114.3 400.974 112.594 398.742 110.49 398.742C108.386 398.742 106.68 400.974 106.68 403.727C106.68 406.48 108.386 408.712 110.49 408.712Z" fill="#3F3D56"/>
<path d="M110.49 402.62C112.594 402.62 114.3 400.388 114.3 397.635C114.3 394.881 112.594 392.649 110.49 392.649C108.386 392.649 106.68 394.881 106.68 397.635C106.68 400.388 108.386 402.62 110.49 402.62Z" fill="#3F3D56"/>
<path d="M110.49 396.527C112.594 396.527 114.3 394.295 114.3 391.542C114.3 388.789 112.594 386.557 110.49 386.557C108.386 386.557 106.68 388.789 106.68 391.542C106.68 394.295 108.386 396.527 110.49 396.527Z" fill="#3F3D56"/>
<path d="M124.75 349.847C125.269 349.184 125.743 348.486 126.167 347.759L116.159 346.112L126.982 346.199C128.02 343.939 128.586 341.492 128.646 339.006C128.706 336.521 128.259 334.049 127.332 331.742L112.808 339.274L126.201 329.413C124.946 327.247 123.257 325.362 121.242 323.876C119.226 322.391 116.926 321.336 114.485 320.777C112.043 320.219 109.513 320.168 107.052 320.63C104.59 321.091 102.25 322.054 100.177 323.458C98.104 324.863 96.3422 326.679 95.0015 328.793C93.6607 330.908 92.7697 333.276 92.3839 335.75C91.9981 338.224 92.1257 340.75 92.7589 343.173C93.392 345.595 94.5171 347.861 96.0641 349.83C95.2548 350.862 94.5585 351.977 93.9869 353.157L106.978 359.904L93.1261 355.257C92.1531 358.131 91.9121 361.203 92.4251 364.194C92.9381 367.185 94.1888 370.001 96.0641 372.387C93.948 375.078 92.632 378.31 92.2664 381.714C91.9009 385.117 92.5005 388.555 93.9969 391.634C95.4933 394.713 97.826 397.309 100.728 399.125C103.631 400.941 106.986 401.905 110.41 401.905C113.834 401.905 117.189 400.941 120.091 399.125C122.993 397.309 125.326 394.713 126.823 391.634C128.319 388.555 128.919 385.117 128.553 381.714C128.188 378.31 126.871 375.078 124.755 372.387C127.283 369.171 128.657 365.199 128.657 361.108C128.657 357.018 127.283 353.046 124.755 349.83L124.75 349.847Z" fill="#45AA29"/>
<path opacity="0.1" d="M92.1621 361.125C92.1554 365.217 93.5303 369.191 96.0641 372.404C93.948 375.095 92.632 378.327 92.2664 381.731C91.9009 385.134 92.5006 388.572 93.9969 391.651C95.4933 394.73 97.826 397.326 100.728 399.142C103.631 400.958 106.986 401.921 110.41 401.921C113.834 401.921 117.189 400.958 120.091 399.142C122.994 397.326 125.326 394.73 126.823 391.651C128.319 388.572 128.919 385.134 128.553 381.731C128.188 378.327 126.871 375.095 124.755 372.404C127.194 369.3 92.1621 359.077 92.1621 361.125Z" fill="black"/>
<path d="M198.83 296.713V426.364C189.358 425.902 179.892 425.345 170.432 424.695L166.122 424.391V296.713C166.122 296.048 166.253 295.39 166.508 294.776C166.762 294.162 167.135 293.605 167.605 293.135C168.075 292.665 168.633 292.292 169.247 292.038C169.861 291.784 170.519 291.653 171.183 291.653H193.769C194.434 291.653 195.092 291.784 195.706 292.038C196.32 292.292 196.878 292.665 197.348 293.135C197.818 293.605 198.191 294.162 198.445 294.776C198.699 295.39 198.83 296.048 198.83 296.713Z" fill="#3F3D56"/>
<path d="M240.719 427.976V210.087C240.719 208.745 241.253 207.458 242.202 206.509C243.151 205.56 244.438 205.027 245.781 205.027H268.366C269.031 205.027 269.689 205.158 270.303 205.413C270.917 205.667 271.475 206.039 271.945 206.509C272.415 206.979 272.788 207.537 273.042 208.151C273.297 208.765 273.428 209.423 273.428 210.087V428.544L240.719 427.976Z" fill="#3F3D56"/>
<path d="M315.317 428.659V255.408C315.317 254.066 315.85 252.779 316.799 251.83C317.748 250.881 319.036 250.348 320.378 250.348H342.964C344.306 250.348 345.593 250.881 346.543 251.83C347.492 252.779 348.025 254.066 348.025 255.408V428.286L315.317 428.659Z" fill="#3F3D56"/>
<path d="M422.622 126.904V426.565C411.719 426.875 400.817 427.166 389.914 427.437V126.904C389.914 125.562 390.447 124.275 391.396 123.326C392.346 122.377 393.633 121.844 394.975 121.844H417.561C418.903 121.844 420.191 122.377 421.14 123.326C422.089 124.275 422.622 125.562 422.622 126.904Z" fill="#3F3D56"/>
<path d="M497.219 187.14V424.07C486.317 424.597 475.414 424.97 464.511 425.303V187.14C464.511 185.798 465.044 184.511 465.994 183.562C466.943 182.613 468.23 182.08 469.572 182.08H492.158C493.5 182.08 494.788 182.613 495.737 183.562C496.686 184.511 497.219 185.798 497.219 187.14Z" fill="#3F3D56"/>
<path d="M182.763 221.102L257.36 137.918L331.958 179.797L406.555 51.2925L481.152 112.676" stroke="#3F3D56" stroke-width="7" stroke-miterlimit="10" stroke-linecap="round"/>
<path d="M182.476 237.165C191.35 237.165 198.543 229.973 198.543 221.102C198.543 212.23 191.35 205.039 182.476 205.039C173.603 205.039 166.409 212.23 166.409 221.102C166.409 229.973 173.603 237.165 182.476 237.165Z" fill="#45AA29"/>
<path d="M257.074 153.981C265.947 153.981 273.141 146.789 273.141 137.918C273.141 129.047 265.947 121.855 257.074 121.855C248.2 121.855 241.007 129.047 241.007 137.918C241.007 146.789 248.2 153.981 257.074 153.981Z" fill="#45AA29"/>
<path d="M331.671 195.86C340.544 195.86 347.738 188.668 347.738 179.797C347.738 170.926 340.544 163.734 331.671 163.734C322.797 163.734 315.604 170.926 315.604 179.797C315.604 188.668 322.797 195.86 331.671 195.86Z" fill="#45AA29"/>
<path d="M406.268 67.3555C415.142 67.3555 422.335 60.1639 422.335 51.2925C422.335 42.4212 415.142 35.2295 406.268 35.2295C397.394 35.2295 390.201 42.4212 390.201 51.2925C390.201 60.1639 397.394 67.3555 406.268 67.3555Z" fill="#45AA29"/>
<path d="M549.724 203.891C558.598 203.891 565.791 196.7 565.791 187.828C565.791 178.957 558.598 171.765 549.724 171.765C540.851 171.765 533.657 178.957 533.657 187.828C533.657 196.7 540.851 203.891 549.724 203.891Z" fill="#45AA29"/>
<path opacity="0.1" d="M134.091 416.36C140.011 416.36 144.81 415.548 144.81 414.547C144.81 413.546 140.011 412.734 134.091 412.734C128.171 412.734 123.372 413.546 123.372 414.547C123.372 415.548 128.171 416.36 134.091 416.36Z" fill="#45AA29"/>
<path d="M126.896 406.131C126.896 406.131 133.007 405.941 134.849 404.628C136.691 403.314 144.254 401.759 144.713 403.853C145.172 405.947 153.894 414.317 147.008 414.375C140.122 414.432 130.97 413.296 129.134 412.177C127.297 411.059 126.896 406.131 126.896 406.131Z" fill="#A8A8A8"/>
<path opacity="0.2" d="M147.117 413.64C140.231 413.698 131.085 412.567 129.243 411.449C127.843 410.594 127.286 407.536 127.097 406.125H126.896C126.896 406.125 127.28 411.053 129.122 412.172C130.964 413.29 140.094 414.426 146.997 414.369C148.988 414.369 149.677 413.646 149.636 412.596C149.361 413.233 148.604 413.629 147.117 413.64Z" fill="black"/>
<path opacity="0.1" d="M610.435 433.248C621.308 433.248 630.123 431.759 630.123 429.921C630.123 428.083 621.308 426.594 610.435 426.594C599.562 426.594 590.747 428.083 590.747 429.921C590.747 431.759 599.562 433.248 610.435 433.248Z" fill="#45AA29"/>
<path d="M597.231 414.461C597.231 414.461 608.461 414.116 611.847 411.707C615.232 409.297 629.119 406.423 629.957 410.284C630.794 414.145 646.839 429.502 634.157 429.606C621.476 429.709 604.697 427.632 601.317 425.59C597.937 423.548 597.231 414.461 597.231 414.461Z" fill="#A8A8A8"/>
<path opacity="0.2" d="M634.369 428.263C621.688 428.367 604.909 426.29 601.529 424.248C598.959 422.682 597.931 417.059 597.587 414.495H597.214C597.214 414.495 597.926 423.554 601.3 425.607C604.674 427.661 621.464 429.744 634.14 429.623C637.801 429.623 639.063 428.292 638.994 426.365C638.484 427.512 637.089 428.24 634.369 428.263Z" fill="black"/>
<path d="M487.522 197.679C487.628 198.683 488.027 199.635 488.669 200.415C489.501 201.356 490.746 201.786 491.865 202.348C494.761 203.83 496.973 206.372 498.04 209.445C499.951 215.021 500.197 220.918 502.63 226.299C505.063 231.681 507.921 236.849 510.021 242.362C511.215 245.489 512.167 248.742 513.917 251.587C514.765 252.987 515.846 254.23 517.114 255.265C516.982 257.284 516.93 259.28 516.942 261.3C517.329 261.292 517.713 261.383 518.056 261.563C518.399 261.744 518.691 262.008 518.904 262.332C519.329 262.986 519.621 263.717 519.765 264.484C520.551 267.736 519.581 271.201 520.287 274.471C522.226 283.567 521.631 293.021 518.565 301.801C517.779 304.027 516.792 311.393 517.63 313.602C520.752 313.286 523.518 315.203 526.438 316.47C526.674 318.201 526.534 319.962 526.025 321.634C524.975 324.657 524.981 327.944 524.998 331.139L525.141 354.809C525.141 357.81 525.182 360.85 525.933 363.759C526.788 367.035 528.584 370.373 528.527 373.758C528.372 381.044 531.815 387.985 531.54 395.214C531.488 396.602 531.299 397.979 531.167 399.356C530.828 403.023 530.92 406.718 531.442 410.365C532.486 417.627 535.247 424.77 534.558 432.073C534.512 432.566 534.346 433.22 533.881 433.409C534.455 434.058 535.063 434.7 535.683 435.314C535.557 435.523 535.387 435.701 535.183 435.836C534.505 436.19 533.756 436.386 532.991 436.41C532.094 436.433 531.223 436.716 530.484 437.224C529.946 437.74 529.581 438.409 529.439 439.14C529.235 439.863 529.191 440.621 529.31 441.362C529.429 442.103 529.708 442.809 530.128 443.431C530.64 444.076 531.31 444.578 532.073 444.889C534.724 446.036 537.766 445.204 540.531 444.367L551.365 441.085C552.026 440.948 552.636 440.63 553.127 440.167C553.352 439.902 553.5 439.581 553.557 439.238C555.95 439.812 558.578 439.106 561.017 438.377L571.851 435.09C572.513 434.956 573.123 434.637 573.612 434.172C573.807 433.935 573.948 433.658 574.024 433.361C574.101 433.063 574.111 432.753 574.054 432.451C574.135 432.417 574.215 432.394 574.295 432.354C575.122 431.981 576.017 431.252 575.816 430.374C575.673 429.801 575.099 429.468 574.852 428.94C574.736 428.597 574.712 428.229 574.782 427.874C574.853 427.519 575.015 427.188 575.254 426.915C575.678 426.342 576.252 425.865 576.642 425.263C577.893 423.347 577.044 420.828 576.573 418.585C575.558 413.795 576.499 408.793 575.856 403.939C575.638 402.304 575.242 400.698 574.927 399.075C574.258 395.237 573.815 391.364 573.601 387.475C573.188 381.922 571.644 376.449 572.528 370.941C572.957 367.709 573.139 364.449 573.073 361.189C573.136 359.112 573.045 357.034 572.803 354.97C572.58 353.433 572.184 351.924 572.012 350.381C571.872 348.646 571.841 346.904 571.92 345.166C571.999 341.291 571.641 337.419 570.852 333.623C569.705 328.409 567.547 323.418 566.629 318.191C566.939 318.26 567.249 318.329 567.547 318.409C567.582 314.394 564.064 305.662 562.761 301.853C562.571 301.386 562.455 300.893 562.417 300.39C562.496 299.727 562.617 299.07 562.779 298.422C562.945 297.034 562.205 295.715 562.004 294.326C561.926 293.35 561.997 292.367 562.216 291.412C563.14 286.278 564.288 281.183 565.435 276.095C565.936 274.252 566.109 272.335 565.946 270.433C565.813 269.424 565.898 268.399 566.194 267.426C566.491 266.453 566.994 265.555 567.668 264.793C568.172 264.328 568.601 263.788 568.942 263.193C569.132 262.682 569.218 262.137 569.194 261.592C569.171 259.232 568.824 256.887 568.161 254.622C569.171 252.792 569.544 250.543 569.837 248.421C570.479 243.734 571.122 239.024 571.099 234.291C571.15 231.766 570.802 229.249 570.066 226.833C569.529 225.341 568.873 223.894 568.104 222.507C565.085 216.696 562.199 210.581 558.389 205.257C557.241 203.639 557.964 201.407 558.045 199.411C558.131 197.002 557.178 194.69 556.243 192.475C555.766 191.112 555.033 189.853 554.085 188.764C553.765 188.411 553.375 188.127 552.941 187.93C552.507 187.732 552.037 187.626 551.56 187.616C551.02 187.682 550.5 187.863 550.036 188.147C549.572 188.431 549.174 188.812 548.869 189.263C548.175 190.208 547.675 191.281 547.399 192.42C547.122 193.559 547.074 194.742 547.257 195.9C547.638 198.218 548.648 200.387 550.177 202.17C550.916 203.068 551.762 203.871 552.697 204.563C553.645 207.576 554.602 210.588 555.566 213.598C557.081 218.388 558.595 223.202 560.73 227.734C561.356 229.047 562.044 230.384 562.119 231.835C562.199 233.402 561.545 234.893 561.023 236.368C559.923 239.44 559.3 242.664 559.175 245.925C559.007 245.999 558.846 246.088 558.693 246.189C556.886 247.371 556.317 249.947 554.435 251.002C553.339 251.616 552.008 251.576 550.78 251.857C550.671 251.857 550.562 251.914 550.447 251.949C550.401 251.719 550.355 251.495 550.327 251.26C550.309 251.114 550.309 250.965 550.327 250.819C553.253 249.21 555.71 246.87 557.459 244.026C557.828 243.5 558.112 242.919 558.303 242.305C558.458 241.57 558.487 240.813 558.389 240.068C558.293 237.58 557.937 235.11 557.327 232.696C556.715 230.271 555.376 228.091 553.488 226.449C552.547 225.691 551.463 225.123 550.528 224.36C548.703 222.886 547.452 220.706 545.363 219.61C544.034 218.963 542.517 218.811 541.086 219.181C539.655 219.551 538.402 220.419 537.553 221.63C537.275 222.189 536.885 222.686 536.406 223.087C536.04 223.26 535.684 223.451 535.338 223.661C534.707 224.165 534.673 225.135 534.879 225.921C535.271 227.536 535.49 229.188 535.533 230.849C533.681 233.022 532.661 235.781 532.655 238.636C532.649 241.49 533.657 244.255 535.499 246.436C535.499 247.503 535.499 248.57 535.459 249.637C535.459 249.838 535.459 250.044 535.419 250.245C534.757 250.014 534.165 249.62 533.697 249.097C533.055 248.294 532.94 247.113 532.154 246.453C531.588 246.08 530.944 245.844 530.271 245.764C528.6 245.385 527.033 244.643 525.681 243.59C524.619 242.77 523.518 241.72 522.278 241.479C520.139 237.468 517.643 233.659 514.818 230.097C514.102 229.254 513.45 228.359 512.867 227.418C511.634 225.267 511.266 222.737 510.486 220.379C508.305 213.77 502.866 208.469 501.54 201.631C501.058 199.153 499.486 196.996 498.407 194.713C497.678 193.169 496.875 191.54 495.417 190.657C493.541 189.509 490.947 190.037 489.386 191.58C488.631 192.387 488.07 193.356 487.747 194.413C487.424 195.47 487.347 196.587 487.522 197.679ZM555.652 429.841C554.974 430.195 554.224 430.391 553.46 430.415C553.074 430.455 552.691 430.516 552.312 430.598C552.169 429.393 552.088 428.172 551.996 426.984C551.692 423.089 551.084 419.222 550.482 415.361C549.85 411.346 549.552 406.951 548.186 403.096C545.989 396.82 543.762 390.355 544.043 383.706C544.106 382.197 544.296 380.7 544.376 379.197C544.56 375.473 544.038 371.67 544.95 368.05C545.357 366.403 546.052 364.832 546.316 363.156C546.484 361.644 546.503 360.118 546.373 358.601C546.122 353.337 546.56 348.062 547.676 342.911C548.743 344.305 549.093 346.107 549.397 347.833L551.549 359.502C552.829 366.426 553.959 373.77 557.35 379.931C556.874 382.151 556.403 384.52 557.19 386.643C557.528 387.561 558.085 388.364 558.429 389.293C559.003 390.836 558.923 392.535 559.095 394.17C559.468 397.612 560.891 400.996 559.846 404.318C558.772 407.743 558.074 411.275 557.763 414.851C557.706 415.845 557.591 416.836 557.419 417.817C557.236 418.7 556.937 419.538 556.771 420.444C556.541 421.716 556.598 423.023 556.937 424.271C557.195 424.962 557.353 425.686 557.408 426.422C557.408 427.156 556.507 427.684 555.784 427.799C555.996 428.074 556.226 428.338 556.461 428.596C556.323 429.083 556.041 429.517 555.652 429.841Z" fill="url(#paint0_linear)"/>
<path d="M532.992 436.461C532.095 436.485 531.224 436.768 530.484 437.276C529.944 437.785 529.579 438.452 529.44 439.18C529.236 439.897 529.192 440.65 529.311 441.385C529.43 442.121 529.709 442.821 530.128 443.437C530.641 444.08 531.311 444.58 532.073 444.889C534.725 446.036 537.766 445.198 540.532 444.366L551.366 441.108C552.026 440.973 552.636 440.657 553.127 440.196C553.425 439.794 553.59 439.309 553.598 438.809C553.607 438.309 553.458 437.819 553.173 437.408C552.591 436.598 551.797 435.965 550.878 435.578C547.509 433.937 543.711 433.564 540.01 433.495C538.632 433.495 537.272 433.162 536.337 434.224C535.844 434.797 535.935 435.411 535.189 435.899C534.508 436.247 533.757 436.439 532.992 436.461Z" fill="#3F3D56"/>
<path d="M553.46 430.507C552.563 430.533 551.693 430.815 550.952 431.321C550.414 431.832 550.049 432.498 549.908 433.226C549.705 433.944 549.661 434.697 549.78 435.433C549.899 436.17 550.178 436.871 550.597 437.488C551.111 438.128 551.781 438.626 552.542 438.934C555.199 440.081 558.234 439.25 561 438.418L571.834 435.153C572.494 435.018 573.104 434.703 573.596 434.241C573.893 433.841 574.058 433.357 574.066 432.857C574.074 432.358 573.926 431.869 573.641 431.459C573.059 430.65 572.265 430.017 571.346 429.629C567.972 427.988 564.173 427.61 560.472 427.541C559.095 427.541 557.741 427.214 556.8 428.275C556.306 428.849 556.398 429.457 555.652 429.944C554.974 430.297 554.224 430.489 553.46 430.507Z" fill="#3F3D56"/>
<path d="M544.043 312.959C550.428 312.318 556.85 312.138 563.261 312.42C563.684 312.416 564.105 312.482 564.506 312.615C565.918 313.189 566.136 315.036 566.268 316.545C566.842 322.672 569.516 328.38 570.858 334.381C571.647 338.152 572.005 342.002 571.926 345.854C571.848 347.575 571.879 349.3 572.017 351.017C572.19 352.549 572.591 354.052 572.809 355.578C573.051 357.628 573.142 359.693 573.079 361.757C573.145 364.992 572.962 368.227 572.534 371.435C571.65 376.902 573.194 382.334 573.607 387.865C573.813 391.733 574.248 395.585 574.909 399.401C575.225 401.013 575.621 402.608 575.839 404.232C576.482 409.056 575.541 414.025 576.556 418.786C577.027 421.012 577.876 423.513 576.625 425.418C576.235 425.991 575.661 426.479 575.237 427.059C574.998 427.329 574.836 427.658 574.765 428.011C574.695 428.365 574.719 428.731 574.835 429.072C575.082 429.594 575.655 429.938 575.799 430.495C576.023 431.373 575.105 432.09 574.278 432.463C568.052 435.274 560.024 433.294 555.824 427.908C556.547 427.793 557.431 427.271 557.448 426.536C557.393 425.806 557.234 425.088 556.977 424.402C556.639 423.165 556.583 421.867 556.811 420.605C556.977 419.721 557.276 418.884 557.459 417.994C557.632 417.019 557.747 416.034 557.804 415.046C558.114 411.492 558.813 407.983 559.887 404.582C560.931 401.283 559.508 397.944 559.135 394.502C558.963 392.873 559.037 391.192 558.469 389.655C558.125 388.748 557.568 387.934 557.23 387.027C556.444 384.91 556.914 382.558 557.391 380.355C553.999 374.234 552.869 366.937 551.589 360.058L549.437 348.47C549.116 346.749 548.766 344.965 547.716 343.577C546.6 348.693 546.163 353.933 546.413 359.164C546.543 360.671 546.524 362.187 546.356 363.69C546.092 365.354 545.398 366.92 544.99 368.549C544.101 372.146 544.623 375.921 544.416 379.621C544.336 381.118 544.147 382.604 544.084 384.101C543.802 390.71 546.029 397.135 548.227 403.371C549.575 407.198 549.873 411.546 550.522 415.551C551.096 419.388 551.733 423.226 552.037 427.099C552.318 430.656 552.444 434.505 554.659 437.299C552.634 438.612 550.545 439.949 548.175 440.402C545.413 440.834 542.587 440.286 540.187 438.853C537.801 437.427 535.668 435.614 533.875 433.489C534.34 433.329 534.506 432.652 534.552 432.164C535.241 424.901 532.481 417.822 531.436 410.594C530.914 406.973 530.822 403.303 531.161 399.66C531.293 398.289 531.482 396.917 531.534 395.541C531.809 388.364 528.349 381.451 528.476 374.269C528.533 370.901 526.754 367.585 525.882 364.332C525.13 361.464 525.107 358.424 525.09 355.44L524.947 331.92C524.947 328.741 524.947 325.483 525.974 322.482C527.236 318.868 525.79 314.721 525.572 310.9C531.535 312.789 537.811 313.489 544.043 312.959Z" fill="#696791"/>
<path d="M523.587 245.38C521.175 240.45 518.229 235.801 514.801 231.514C514.085 230.677 513.433 229.787 512.85 228.852C511.617 226.712 511.249 224.2 510.469 221.859C508.288 215.296 502.849 210.024 501.523 203.237C501.041 200.771 499.469 198.648 498.39 196.353C497.661 194.822 496.858 193.204 495.4 192.338C493.524 191.19 490.93 191.718 489.37 193.255C488.619 194.056 488.061 195.017 487.741 196.067C487.421 197.116 487.346 198.225 487.522 199.308C487.629 200.307 488.028 201.253 488.669 202.027C489.501 202.962 490.747 203.387 491.866 203.949C494.757 205.414 496.969 207.94 498.04 210.999C499.951 216.535 500.198 222.398 502.631 227.745C505.064 233.092 507.921 238.22 510.021 243.688C511.215 246.791 512.168 249.998 513.918 252.867C515.668 255.735 518.399 258.139 521.699 258.569C521.676 256.489 521.992 254.42 522.634 252.442C523.351 250.182 524.625 247.52 523.587 245.38Z" fill="#A0616A"/>
<path d="M559.112 249.671C558.965 245.615 559.598 241.568 560.977 237.75C561.505 236.287 562.125 234.802 562.073 233.247C561.998 231.801 561.31 230.476 560.684 229.168C558.527 224.665 557.012 219.892 555.52 215.13L552.651 206.152C551.715 205.466 550.869 204.666 550.132 203.771C548.602 202.003 547.591 199.847 547.211 197.541C547.028 196.391 547.076 195.216 547.353 194.086C547.63 192.955 548.13 191.89 548.823 190.955C549.129 190.506 549.527 190.127 549.992 189.844C550.456 189.561 550.975 189.381 551.515 189.314C551.991 189.325 552.461 189.432 552.895 189.629C553.329 189.827 553.718 190.11 554.039 190.462C554.986 191.541 555.718 192.791 556.197 194.145C557.132 196.348 558.085 198.642 557.999 201.029C557.918 203.014 557.178 205.228 558.343 206.84C562.153 212.13 565.04 218.205 568.058 223.982C568.828 225.358 569.484 226.796 570.02 228.279C570.758 230.683 571.106 233.189 571.053 235.702C571.053 240.401 570.434 245.082 569.791 249.74C569.384 252.66 568.85 255.838 566.641 257.772C564.345 254.834 562.039 251.966 559.112 249.671Z" fill="#A0616A"/>
<path d="M544.514 251.908C551.09 251.908 556.421 246.579 556.421 240.004C556.421 233.43 551.09 228.101 544.514 228.101C537.938 228.101 532.607 233.43 532.607 240.004C532.607 246.579 537.938 251.908 544.514 251.908Z" fill="#A0616A"/>
<path d="M550.281 252.539C550.568 254.691 551.721 256.618 552.846 258.477C553.523 259.624 554.39 260.846 555.715 260.972C552.265 262.783 548.641 264.239 544.898 265.321C543.626 265.748 542.293 265.963 540.951 265.958C539.813 265.873 538.7 265.587 537.663 265.114C535.393 264.126 533.378 262.636 531.768 260.756C530.159 258.876 528.998 256.655 528.372 254.26C529.855 254.3 531.337 254.186 532.797 253.922C533.63 253.858 534.406 253.476 534.966 252.855C535.298 252.273 535.454 251.607 535.413 250.939C535.471 248.954 535.476 246.963 535.413 244.978C538.339 244.792 541.274 245.154 544.066 246.045C545.214 246.418 546.362 246.866 547.509 247.158C548.232 247.342 550.224 247.158 550.757 247.577C551.635 248.168 550.08 251.077 550.281 252.539Z" fill="#A0616A"/>
<path d="M545.048 259.774C545.178 258.205 545.799 256.718 546.823 255.522C547.847 254.327 549.221 253.484 550.751 253.113C551.979 252.838 553.311 252.872 554.407 252.264C556.289 251.214 556.857 248.656 558.664 247.48C560.472 246.304 563.037 246.958 564.609 248.444C566.182 249.929 566.979 252.046 567.622 254.117C568.581 256.917 569.102 259.849 569.165 262.809C569.189 263.35 569.103 263.89 568.913 264.398C568.573 264.99 568.143 265.526 567.639 265.987C566.966 266.742 566.463 267.634 566.166 268.601C565.869 269.569 565.784 270.588 565.918 271.592C566.081 273.481 565.908 275.384 565.407 277.214C564.259 282.273 563.112 287.328 562.188 292.433C561.971 293.373 561.899 294.34 561.975 295.302C562.153 296.684 562.916 297.992 562.75 299.375C562.588 300.018 562.467 300.672 562.389 301.331C562.426 301.83 562.542 302.32 562.733 302.783C564.035 306.563 567.553 315.226 567.519 319.23C561.407 317.664 552.398 317.314 546.086 317.285C544.35 317.267 542.615 317.344 540.887 317.515C536.739 317.962 532.492 319.173 528.47 318.054C524.734 317.016 521.429 314.038 517.567 314.411C516.729 312.22 517.716 304.905 518.502 302.691C521.567 293.971 522.163 284.575 520.224 275.538C519.518 272.291 520.488 268.844 519.702 265.62C519.558 264.857 519.266 264.13 518.841 263.48C518.627 263.157 518.335 262.893 517.992 262.714C517.649 262.534 517.266 262.445 516.879 262.453C516.807 257.267 517.288 252.088 518.313 247.004C518.692 245.197 519.461 243.062 521.314 242.753C522.955 242.472 524.333 243.86 525.652 244.875C527.006 245.923 528.573 246.659 530.243 247.032C530.915 247.112 531.56 247.348 532.125 247.721C532.911 248.375 533.026 249.551 533.669 250.348C534.816 251.777 537.381 251.656 538.196 253.303C538.374 253.793 538.518 254.295 538.626 254.806C539.012 255.784 539.669 256.632 540.52 257.25C541.798 258.451 543.354 259.318 545.048 259.774Z" fill="#F86D70"/>
<path d="M534.839 227.349C534.633 226.563 534.667 225.628 535.298 225.1C535.614 224.854 536.027 224.762 536.366 224.527C536.843 224.126 537.233 223.632 537.513 223.075C538.37 221.877 539.623 221.021 541.05 220.659C542.478 220.297 543.987 220.451 545.312 221.096C547.383 222.18 548.634 224.349 550.476 225.812C551.411 226.569 552.496 227.131 553.437 227.888C555.322 229.516 556.662 231.683 557.276 234.096C557.886 236.492 558.241 238.945 558.337 241.416C558.435 242.157 558.406 242.91 558.251 243.642C558.061 244.255 557.776 244.836 557.408 245.363C555.514 248.231 553.018 250.836 549.891 252.316C546.763 253.796 542.959 254.037 539.872 252.488C539.561 252.362 539.294 252.149 539.103 251.874C538.927 251.455 538.885 250.992 538.982 250.549C539.15 248.795 538.803 247.031 537.984 245.472C537.41 244.324 536.549 243.338 536.09 242.15C535.663 240.821 535.481 239.425 535.551 238.031C535.499 234.423 535.746 230.826 534.839 227.349Z" fill="#2D293D"/>
<defs>
<linearGradient id="paint0_linear" x1="577.279" y1="316.533" x2="487.447" y2="316.533" gradientUnits="userSpaceOnUse">
<stop stop-color="#808080" stop-opacity="0.25"/>
<stop offset="0.54" stop-color="#808080" stop-opacity="0.12"/>
<stop offset="1" stop-color="#808080" stop-opacity="0.1"/>
</linearGradient>
</defs>
</svg>
