<svg width="666" height="491" viewBox="0 0 666 491" fill="none" xmlns="http://www.w3.org/2000/svg">
<path d="M629.545 64.71H71.9917V365.26H629.545V64.71Z" fill="#F2F2F2"/>
<path opacity="0.3" d="M306.041 116.233H125.909V337.658H306.041V116.233Z" fill="#45AA29"/>
<path d="M519.259 132.181H375.276V140.154H519.259V132.181Z" fill="#3F3D56"/>
<path d="M584.818 146.901H375.276V154.875H584.818V146.901Z" fill="#3F3D56"/>
<path d="M519.259 182.477H375.276V190.45H519.259V182.477Z" fill="#3F3D56"/>
<path d="M519.259 241.36H375.276V249.334H519.259V241.36Z" fill="#3F3D56"/>
<path d="M584.818 197.197H375.276V205.171H584.818V197.197Z" fill="#3F3D56"/>
<path d="M584.818 211.918H375.276V219.892H584.818V211.918Z" fill="#3F3D56"/>
<path d="M584.818 226.639H375.276V234.613H584.818V226.639Z" fill="#3F3D56"/>
<path d="M450.637 276.935H375.276V297.79H450.637V276.935Z" fill="#45AA29"/>
<path d="M317.683 104.272H137.55V325.698H317.683V104.272Z" fill="#3F3D56"/>
<path d="M291.95 226.705C291.95 269.709 266.413 284.724 234.911 284.724C203.41 284.724 177.873 269.709 177.873 226.705C177.873 183.702 234.911 128.994 234.911 128.994C234.911 128.994 291.95 183.702 291.95 226.705Z" fill="#45AA29"/>
<path d="M232.833 278.146L233.417 242.155L257.728 197.63L233.509 236.51L233.771 220.327L250.527 188.113L233.841 216.044V216.045L234.313 186.94L252.255 161.293L234.387 182.363L234.683 128.994L232.828 199.645L232.98 196.73L214.739 168.778L232.688 202.325L230.988 234.831L230.938 233.968L209.908 204.552L230.874 237.015L230.661 241.081L230.623 241.142L230.641 241.476L226.328 323.945H232.09L232.781 281.348L253.695 248.964L232.833 278.146Z" fill="#3F3D56"/>
<path d="M80.5695 491C124.898 491 160.833 486.332 160.833 480.573C160.833 474.814 124.898 470.146 80.5695 470.146C36.2414 470.146 0.306396 474.814 0.306396 480.573C0.306396 486.332 36.2414 491 80.5695 491Z" fill="#3F3D56"/>
<path d="M42.6579 191.908L39.9917 198.247L42.9911 239.284C42.9911 239.284 41.3248 241.619 42.9911 243.287C44.6575 244.956 44.3242 245.623 44.3242 245.623C44.3242 245.623 41.658 245.623 42.9911 247.625C44.3242 249.627 44.3242 250.627 44.3242 250.627L43.6577 252.629C43.6577 252.629 44.9908 254.297 44.9908 255.632C44.9908 256.967 53.6558 298.004 53.6558 298.004L61.9875 281.655L57.3217 216.597L42.6579 191.908Z" fill="#45AA29"/>
<path d="M130.325 294.559C130.325 294.559 144.989 305.371 145.505 314.017C146.021 322.664 126.603 301.142 126.471 298.716C126.339 296.291 130.325 294.559 130.325 294.559Z" fill="#FFB9B9"/>
<path d="M38.3254 458.148L34.6594 470.159C34.6594 470.159 29.3271 481.836 36.659 483.504C43.9909 485.172 50.9896 478.833 50.9896 478.833V470.826L53.6558 458.148H38.3254Z" fill="#2F2E41"/>
<path d="M98.3139 458.148C98.3139 458.148 96.6475 480.835 100.314 482.17C103.979 483.504 116.977 483.838 117.31 482.17C117.644 480.501 121.643 478.833 118.643 476.498C115.644 474.162 113.644 460.483 113.644 460.483L98.3139 458.148Z" fill="#2F2E41"/>
<path d="M64.6535 243.287V253.296C64.6535 253.296 53.6557 276.317 49.6564 312.683C45.6571 349.05 31.9931 459.816 35.3258 461.818C38.6585 463.82 74.6517 465.155 75.6514 462.485C76.6512 459.816 77.651 381.746 77.651 381.746L89.982 326.696C89.982 326.696 92.3149 346.381 94.3145 349.717C96.3142 353.053 90.9818 461.485 94.3145 463.153C97.6472 464.821 142.639 467.824 141.972 462.485C141.306 457.147 126.308 312.35 126.308 312.35C126.308 312.35 118.643 243.955 116.31 243.287C113.978 242.62 92.6482 241.953 89.3155 242.62C85.9828 243.287 64.6535 243.287 64.6535 243.287Z" fill="#2F2E41"/>
<path d="M89.982 160.546C100.473 160.546 108.978 152.032 108.978 141.529C108.978 131.026 100.473 122.512 89.982 122.512C79.4906 122.512 70.9856 131.026 70.9856 141.529C70.9856 152.032 79.4906 160.546 89.982 160.546Z" fill="#FFB9B9"/>
<path d="M93.9815 157.543C93.9815 157.543 84.3166 172.557 86.6495 176.56C88.9824 180.564 61.9875 172.557 61.9875 172.557C61.9875 172.557 78.3178 152.539 77.9845 150.203C77.6512 147.868 93.9815 157.543 93.9815 157.543Z" fill="#FFB9B9"/>
<path d="M113.978 179.897C113.978 179.897 96.3143 174.225 93.9814 171.89C92.4848 170.359 91.1451 168.683 89.9822 166.885C89.9822 166.885 68.6529 163.882 67.9864 163.882C67.3198 163.882 62.3208 169.888 60.9877 171.222C59.6546 172.557 42.6579 181.565 42.6579 183.9C42.6579 186.236 39.9917 198.247 39.9917 198.247C39.9917 198.247 45.9906 210.591 49.6565 213.26C53.3225 215.929 54.3223 215.262 54.6556 219.599C54.9888 223.937 59.6546 230.943 59.6546 230.943C59.6546 230.943 62.654 238.617 61.9875 240.952C61.321 243.287 58.3215 245.289 65.3202 244.622C72.3189 243.955 106.979 245.956 106.979 242.287C106.979 238.617 100.314 203.585 100.314 203.585L113.978 179.897Z" fill="#45AA29"/>
<path d="M107.646 180.564L113.978 179.897C113.978 179.897 116.311 181.232 116.644 194.243C116.977 207.255 116.977 238.617 119.31 241.286C121.643 243.955 131.308 285.326 131.308 285.326C131.308 285.326 133.974 285.993 133.974 288.328C133.974 290.664 136.973 292.666 135.64 295.335C134.307 298.004 136.973 297.336 135.307 299.005C133.641 300.673 125.642 304.009 125.309 302.007C124.976 300.006 126.309 299.672 124.976 299.005C123.642 298.337 123.642 298.004 123.309 295.668C122.976 293.333 119.976 290.997 120.31 289.996C120.643 288.996 105.646 259.969 105.646 258.968C105.646 257.968 104.646 254.298 103.313 253.63C101.98 252.963 99.9803 252.296 100.98 250.628C101.98 248.959 98.314 198.914 98.314 198.914L107.646 180.564Z" fill="#45AA29"/>
<path d="M106.046 129.469C100.221 123.138 91.0727 119.778 82.6834 121.661C74.2942 123.544 67.2299 131.001 66.5739 139.583C66.4397 141.338 66.5515 143.131 66.0977 144.832C65.3346 147.693 63.0637 149.961 62.2631 152.811C61.7269 154.721 61.8858 156.777 61.3175 158.677C60.2674 162.187 57.017 164.477 54.5397 167.175C53.5365 168.164 52.7914 169.384 52.3701 170.729C52.1522 171.922 52.097 173.139 52.206 174.346C52.3104 180.855 49.8933 187.151 45.4617 191.914C48.0674 189.976 50.8827 188.338 53.8543 187.03C52.3814 191.725 53.7279 197.281 57.434 200.515C61.1401 203.749 67.076 204.251 71.0832 201.4C73.4636 199.706 75.0098 197.106 76.4866 194.583L82.078 185.033C83.0893 183.305 84.1452 181.527 85.7612 180.347C87.0454 179.41 88.6057 178.911 89.8984 177.985C93.1593 175.649 94.0349 171.078 93.4277 167.11C92.8205 163.142 91.0381 159.458 90.0159 155.577C89.2074 152.507 88.9537 148.989 90.7725 146.388C93.1869 142.936 98.1487 142.495 101.429 139.855C102.665 138.861 103.216 137.651 104.101 136.406C104.918 135.258 105.126 135.669 106.391 135.617C109.866 135.473 107.334 130.868 106.046 129.469Z" fill="#2F2E41"/>
<path d="M89.4536 151.808C90.2996 151.808 90.9853 150.16 90.9853 148.128C90.9853 146.095 90.2996 144.448 89.4536 144.448C88.6077 144.448 87.9219 146.095 87.9219 148.128C87.9219 150.16 88.6077 151.808 89.4536 151.808Z" fill="#FFB9B9"/>
<path d="M412.957 445.304C423.785 445.304 432.563 436.517 432.563 425.677C432.563 414.836 423.785 406.049 412.957 406.049C402.129 406.049 393.351 414.836 393.351 425.677C393.351 436.517 402.129 445.304 412.957 445.304Z" fill="#F2F2F2"/>
<path d="M19.6063 58.8834C30.4345 58.8834 39.2125 50.0958 39.2125 39.2557C39.2125 28.4156 30.4345 19.6279 19.6063 19.6279C8.77802 19.6279 0 28.4156 0 39.2557C0 50.0958 8.77802 58.8834 19.6063 58.8834Z" fill="#F2F2F2"/>
<path d="M646.394 39.2555C657.222 39.2555 666 30.4678 666 19.6277C666 8.78763 657.222 0 646.394 0C635.566 0 626.788 8.78763 626.788 19.6277C626.788 30.4678 635.566 39.2555 646.394 39.2555Z" fill="#F2F2F2"/>
</svg>
