<svg width="597" height="491" viewBox="0 0 597 491" fill="none" xmlns="http://www.w3.org/2000/svg">
<path d="M596.703 489.353H0V490.625H596.703V489.353Z" fill="#3F3D56"/>
<path d="M302.069 138.141H299.524V68.4734C299.524 63.1782 298.481 57.9349 296.453 53.0428C294.426 48.1507 291.454 43.7057 287.708 39.9614C283.961 36.2172 279.514 33.2471 274.619 31.2207C269.724 29.1943 264.478 28.1514 259.18 28.1514H111.496C106.198 28.1514 100.952 29.1943 96.0568 31.2207C91.162 33.247 86.7144 36.2171 82.9681 39.9613C79.2217 43.7056 76.25 48.1506 74.2224 53.0427C72.1949 57.9348 71.1514 63.1781 71.1514 68.4733V450.678C71.1514 461.372 75.4019 471.628 82.968 479.19C90.534 486.752 100.796 491 111.496 491H259.18C269.88 491 280.142 486.752 287.708 479.19C295.274 471.628 299.524 461.372 299.524 450.678V187.732H302.069L302.069 138.141Z" fill="#3F3D56"/>
<path d="M290.939 68.7548V450.397C290.939 458.383 287.765 466.043 282.114 471.69C276.464 477.337 268.8 480.51 260.809 480.51H112.411C108.454 480.51 104.536 479.731 100.881 478.217C97.2262 476.704 93.9052 474.486 91.1079 471.689C88.3106 468.893 86.0918 465.573 84.5783 461.92C83.0647 458.267 82.286 454.351 82.2866 450.397V68.7548C82.286 64.8006 83.0647 60.885 84.5782 57.2316C86.0918 53.5782 88.3106 50.2585 91.1079 47.4622C93.9052 44.6659 97.2262 42.4476 100.881 40.9341C104.536 39.4206 108.454 38.6416 112.411 38.6414H130.419C129.531 40.8137 129.191 43.171 129.43 45.5054C129.669 47.8399 130.48 50.0796 131.789 52.0272C133.099 53.9747 134.868 55.5702 136.941 56.6729C139.013 57.7756 141.326 58.3517 143.673 58.3502H228.28C230.628 58.3514 232.94 57.7752 235.012 56.6723C237.084 55.5693 238.853 53.9737 240.162 52.026C241.471 50.0784 242.28 47.8386 242.519 45.5044C242.757 43.1701 242.417 40.8132 241.528 38.6414H260.809C268.8 38.6415 276.464 41.8142 282.114 47.4615C287.765 53.1089 290.939 60.7682 290.939 68.7548Z" fill="white"/>
<path d="M149.362 141.154C171.151 141.154 188.815 123.5 188.815 101.724C188.815 79.9468 171.151 62.2932 149.362 62.2932C127.573 62.2932 109.91 79.9468 109.91 101.724C109.91 123.5 127.573 141.154 149.362 141.154Z" fill="#FF6584"/>
<path d="M249.164 290.665C252.058 261.326 242.741 236.392 228.354 234.974C213.966 233.556 199.957 256.192 197.062 285.531C194.168 314.871 203.485 339.805 217.872 341.223C232.26 342.64 246.269 320.005 249.164 290.665Z" fill="#3F3D56"/>
<path d="M216.941 375.291C212.679 311.699 229.157 250.378 229.324 249.766L231.32 250.31C231.154 250.918 214.767 311.917 219.004 375.154L216.941 375.291Z" fill="#45AA29"/>
<path d="M247.175 278.935L222.376 289.207L223.168 291.117L247.967 280.845L247.175 278.935Z" fill="#45AA29"/>
<path d="M199.106 280.57L197.956 282.288L220.267 297.21L221.417 295.491L199.106 280.57Z" fill="#45AA29"/>
<path d="M219.556 205.022C225.217 147.636 206.994 98.8687 178.854 96.0958C150.714 93.3228 123.312 137.595 117.651 194.98C111.99 252.365 130.213 301.132 158.353 303.905C186.493 306.678 213.894 262.407 219.556 205.022Z" fill="#E6E6E6"/>
<path d="M157.516 370.474C149.193 246.258 181.379 126.484 181.705 125.289L183.701 125.832C183.375 127.025 151.281 246.477 159.58 370.337L157.516 370.474Z" fill="#3F3D56"/>
<path d="M216.045 182.991L167.54 203.082L168.332 204.992L216.837 184.901L216.045 182.991Z" fill="#3F3D56"/>
<path d="M121.097 186.093L119.947 187.812L163.584 216.995L164.735 215.277L121.097 186.093Z" fill="#3F3D56"/>
<path d="M365.173 156.225C372.92 77.6984 347.984 10.9636 309.476 7.16904C270.969 3.37444 233.472 63.957 225.725 142.484C217.978 221.011 242.915 287.746 281.422 291.54C319.93 295.335 357.426 234.752 365.173 156.225Z" fill="#45AA29"/>
<path d="M280.658 382.609C269.272 212.692 313.299 48.8522 313.745 47.2173L315.741 47.7609C315.296 49.3928 271.36 212.911 282.722 382.471L280.658 382.609Z" fill="#3F3D56"/>
<path d="M360.516 126.43L294.14 153.922L294.932 155.832L361.308 128.34L360.516 126.43Z" fill="#3F3D56"/>
<path d="M230.228 130.64L229.078 132.358L288.793 172.293L289.943 170.575L230.228 130.64Z" fill="#3F3D56"/>
<path d="M82.2866 380.47L81.0139 452.019C81.0139 468.948 95.7704 482.673 112.41 482.673H260.809C277.449 482.673 292.212 468.948 292.212 452.019L290.939 381.098C216.125 352.115 146.945 353.933 82.2866 380.47Z" fill="#45AA29"/>
<path d="M398.871 131.7L406.77 125.385C400.634 124.709 398.112 128.053 397.08 130.701C392.286 128.711 387.067 131.319 387.067 131.319L402.872 137.053C402.075 134.925 400.687 133.068 398.871 131.7Z" fill="#3F3D56"/>
<path d="M205.806 75.9564L213.705 69.6421C207.569 68.9655 205.047 72.3103 204.016 74.9578C199.222 72.9682 194.003 75.5756 194.003 75.5756L209.807 81.31C209.01 79.1816 207.622 77.3245 205.806 75.9564Z" fill="#3F3D56"/>
<path d="M520.716 51.0865L528.615 44.7723C522.479 44.0956 519.957 47.4404 518.926 50.0879C514.131 48.0983 508.913 50.7057 508.913 50.7057L524.717 56.4402C523.92 54.3117 522.532 52.4546 520.716 51.0865Z" fill="#3F3D56"/>
<path d="M508.229 341.501L508.094 352.257C508.081 353.296 507.838 354.318 507.382 355.251C506.926 356.184 506.269 357.004 505.457 357.652C504.646 358.301 503.701 358.761 502.69 359.001C501.679 359.24 500.628 359.252 499.611 359.037C498.57 358.816 497.593 358.361 496.753 357.707C495.913 357.053 495.233 356.216 494.764 355.261C494.296 354.306 494.05 353.256 494.047 352.192C494.043 351.128 494.282 350.078 494.744 349.119L498.341 341.668L505.797 287.595L502.935 251.461L516.933 250.791L519.91 292.122L508.229 341.501Z" fill="#FFB9B9"/>
<path d="M439.645 398.648L426.186 471.074L432.915 470.039L457.761 397.096L439.645 398.648Z" fill="#FFB9B9"/>
<path d="M504.088 399.424L512.628 473.66L519.875 472.626L521.687 398.907L504.088 399.424Z" fill="#FFB9B9"/>
<path d="M580.695 377.696C561.401 393.188 538.809 415.941 516.316 407.464C492.844 398.619 465.755 398.059 435.245 402.01C442.531 356.328 451.53 313.105 463.196 273.713L502.017 279.921C502.618 280.584 501.168 284.172 501.758 284.836C512.671 297.118 523.801 306.638 530.527 319.289C540.437 338.116 553.848 354.882 570.043 368.688L580.695 377.696Z" fill="#E6E6E6"/>
<path opacity="0.5" d="M597 385.715C577.706 401.644 537.256 428.238 514.763 419.522C491.291 410.427 463.425 411.14 432.915 415.202C434.363 405.87 435.907 396.597 437.548 387.383C444.161 350.263 564.698 363.302 580.954 377.437L597 385.715Z" fill="#E6E6E6"/>
<path d="M519.303 253.107C512.045 250.986 504.645 252.039 497.147 255.297L499.863 234.899C499.588 232.652 500.217 230.387 501.612 228.604C503.008 226.82 505.054 225.664 507.303 225.389C509.551 225.114 511.817 225.742 513.601 227.137C515.386 228.531 516.543 230.577 516.818 232.824L519.303 253.107Z" fill="#2F2E41"/>
<path d="M486.23 210.34C494.235 210.34 500.723 203.855 500.723 195.855C500.723 187.855 494.235 181.37 486.23 181.37C478.226 181.37 471.737 187.855 471.737 195.855C471.737 203.855 478.226 210.34 486.23 210.34Z" fill="#FFB9B9"/>
<path d="M513.146 236.207L481.312 228.706C486.038 221.916 485.071 213.957 481.312 205.426L496.841 202.322C498.56 208.21 500.645 213.599 503.57 217.842L513.146 236.207Z" fill="#FFB9B9"/>
<path d="M502.017 281.99L462.678 276.3L463.987 268.937C463.366 249.754 466.529 234.052 472.513 220.946L507.194 223.015C511.642 226.572 514.787 231.502 516.135 237.035C517.483 242.567 516.959 248.39 514.645 253.593L502.535 277.335L502.017 281.99Z" fill="#2F2E41"/>
<path d="M433.829 489.753C432.013 490.581 430.493 483.873 428.961 485.377C424.678 489.583 418.119 490.499 412.402 488.663L414.403 488.64C414.058 488.53 413.739 488.35 413.466 488.112C413.192 487.875 412.97 487.584 412.812 487.258C412.655 486.932 412.565 486.577 412.548 486.216C412.531 485.854 412.588 485.492 412.716 485.153C412.868 484.748 413.116 484.385 413.44 484.096C413.764 483.808 414.153 483.602 414.573 483.497L419.128 482.359L426.281 469.788L434.075 468.802L434.272 469.124C435.779 471.551 436.75 474.271 437.122 477.104C437.493 479.936 437.256 482.815 436.426 485.548C435.778 487.624 434.895 489.267 433.829 489.753Z" fill="#2F2E41"/>
<path d="M519.753 489.753C517.938 490.581 516.417 483.873 514.886 485.377C510.603 489.583 504.044 490.499 498.327 488.663L500.328 488.64C499.983 488.53 499.664 488.35 499.39 488.112C499.117 487.875 498.895 487.584 498.737 487.258C498.579 486.932 498.489 486.577 498.473 486.216C498.456 485.854 498.513 485.492 498.64 485.153C498.792 484.748 499.041 484.385 499.365 484.096C499.688 483.808 500.077 483.602 500.498 483.497L505.053 482.359L512.205 469.788L520 468.802L520.197 469.124C521.703 471.551 522.675 474.271 523.046 477.104C523.418 479.936 523.18 482.815 522.35 485.548C521.702 487.624 520.82 489.267 519.753 489.753Z" fill="#2F2E41"/>
<path d="M504.27 256.9H503.899C496.899 250.839 490.817 244.043 495.729 235.536C491.563 224.969 486.919 213.995 487.199 207.205C487.494 202.186 485.877 197.24 482.674 193.363C478.247 188.195 477.262 185.887 469.177 187.841C469.148 185.766 469.542 183.706 470.334 181.788C471.126 179.869 472.3 178.132 473.785 176.681C475.27 175.23 477.034 174.096 478.971 173.347C480.908 172.599 482.977 172.252 485.052 172.327L490.103 172.511C493.967 172.651 506.317 174.23 508.968 176.778C510.312 178.114 511.33 179.742 511.94 181.535C512.551 183.329 512.739 185.239 512.49 187.116C511.994 191.33 513.324 195.051 516.878 198.171C523.682 205.202 526.488 212.498 522.63 220.235C519.719 228.425 519.858 235.167 527.368 238.408C529.808 247.764 513.944 256.9 504.27 256.9Z" fill="#2F2E41"/>
<path d="M429.437 301.906C431.445 300.05 430.001 295.227 426.212 291.132C422.423 287.038 417.724 285.224 415.716 287.08C413.709 288.935 415.153 293.759 418.942 297.853C422.73 301.947 427.429 303.762 429.437 301.906Z" fill="#3F3D56"/>
<path d="M442.696 270.06C450.719 270.06 457.222 263.56 457.222 255.541C457.222 247.523 450.719 241.023 442.696 241.023C434.673 241.023 428.17 247.523 428.17 255.541C428.17 263.56 434.673 270.06 442.696 270.06Z" fill="#45AA29"/>
<path d="M467.09 348.056C460.576 345.106 454.508 341.258 449.063 336.624C438.069 327.125 430.087 313.493 429.493 298.759C428.923 284.619 434.918 271.327 441.259 259.04C442.057 257.494 442.863 255.952 443.677 254.415C443.987 253.828 444.947 254.223 444.636 254.813C438.057 267.291 431.155 280.477 430.53 294.866C429.873 310.032 437.286 324.488 448.319 334.579C454.01 339.698 460.456 343.912 467.43 347.071" fill="#3F3D56"/>
<path d="M437.152 255.145L436.478 255.301L438.665 264.765L439.339 264.609L437.152 255.145Z" fill="#3F3D56"/>
<path d="M447.134 332.404C449.848 332.065 451.486 327.304 450.793 321.77C450.1 316.236 447.338 312.026 444.624 312.365C441.911 312.705 440.273 317.466 440.966 322.999C441.659 328.533 444.421 332.744 447.134 332.404Z" fill="#3F3D56"/>
<path d="M463.196 331.137L461.754 341.797C461.615 342.826 461.25 343.811 460.684 344.682C460.117 345.553 459.365 346.287 458.481 346.832C457.597 347.377 456.603 347.719 455.57 347.834C454.538 347.949 453.493 347.833 452.51 347.496C451.503 347.15 450.588 346.58 449.835 345.829C449.081 345.077 448.507 344.165 448.158 343.16C447.809 342.154 447.693 341.083 447.819 340.026C447.945 338.97 448.309 337.956 448.885 337.061L453.361 330.102L467.337 277.335L468.89 241.122L482.865 242.156L480.795 283.542L463.196 331.137Z" fill="#FFB9B9"/>
<path d="M484.677 248.881C477.731 245.895 470.258 246.041 462.42 248.364L467.596 228.447C467.596 226.183 468.496 224.012 470.097 222.411C471.699 220.81 473.871 219.911 476.137 219.911C478.402 219.911 480.574 220.81 482.176 222.411C483.777 224.012 484.677 226.183 484.677 228.447V248.881Z" fill="#2F2E41"/>
</svg>
